<?xml version="1.0" encoding="UTF-8" standalone="no"?>
<svg
   xmlns:dc="http://purl.org/dc/elements/1.1/"
   xmlns:cc="http://creativecommons.org/ns#"
   xmlns:rdf="http://www.w3.org/1999/02/22-rdf-syntax-ns#"
   xmlns:svg="http://www.w3.org/2000/svg"
   xmlns="http://www.w3.org/2000/svg"
   xmlns:sodipodi="http://sodipodi.sourceforge.net/DTD/sodipodi-0.dtd"
   xmlns:inkscape="http://www.inkscape.org/namespaces/inkscape"
   width="64"
   height="64"
   version="1"
   id="svg2"
   inkscape:version="0.91 r13725"
   sodipodi:docname="20minutes.svg">
  <metadata
     id="metadata16">
    <rdf:RDF>
      <cc:Work
         rdf:about="">
        <dc:format>image/svg+xml</dc:format>
        <dc:type
           rdf:resource="http://purl.org/dc/dcmitype/StillImage" />
        <dc:title></dc:title>
      </cc:Work>
    </rdf:RDF>
  </metadata>
  <defs
     id="defs14" />
  <sodipodi:namedview
     pagecolor="#ffffff"
     bordercolor="#666666"
     borderopacity="1"
     objecttolerance="10"
     gridtolerance="10"
     guidetolerance="10"
     inkscape:pageopacity="0"
     inkscape:pageshadow="2"
     inkscape:window-width="1920"
     inkscape:window-height="1017"
     id="namedview12"
     showgrid="false"
     inkscape:zoom="9.7864433"
     inkscape:cx="34.375037"
     inkscape:cy="24.378306"
     inkscape:window-x="-8"
     inkscape:window-y="-8"
     inkscape:window-maximized="1"
     inkscape:current-layer="svg2" />
  <path
     d="M 64,64 0,64 0,0 64,0 64,64 Z"
     id="path4"
     inkscape:connector-curvature="0"
     style="fill:#0e4096" />
  <path
     d="m 59.948501,62.824645 -55.8970001,0 0,-61.6514228 55.8970001,0 0,61.6514228 z"
     id="path6"
     inkscape:connector-curvature="0"
     style="fill:#0e4096" />
  <path
     d="m 6.4424744,45.192061 0,-15.044135 1.7230191,-1.907928 3.8616475,4.224876 0,10.414521 -3.8616475,4.281513 -1.7230191,-1.968859 z m 4.5404126,5.034281 -1.775256,-1.907952 3.863824,-4.281585 11.117192,0 3.80941,4.281513 -1.720902,1.908012 -15.294268,0 z m 19.834728,-41.2532739 0,15.0441109 -1.775292,1.908049 -3.809458,-4.222832 0,-10.414521 3.809446,-4.2814892 1.775256,1.9666943 z m -5.584738,21.1748579 -13.205736,0 -2.819534,-3.065361 2.819534,-3.065386 13.205724,0 2.765156,3.065398 -2.765156,3.065361 z M 24.188623,10.130514 13.082325,10.15009 9.203302,5.8837888 l 1.768714,-1.9166702 15.305163,-0.028295 1.720902,1.9101406 -3.80941,4.2815617 z m 28.184551,22.333771 3.811611,-4.224936 1.773067,1.910141 0,15.041922 -1.772971,1.968883 -3.811575,-4.281573 0,-10.414437 z m -18.790414,12.727127 0,-15.041922 1.723031,-1.910141 3.861599,4.224936 0,10.414437 -3.861599,4.281573 -1.723067,-1.968883 z m 4.540412,5.034232 -1.773091,-1.907988 3.861635,-4.281513 11.117144,0 3.811635,4.281513 -1.723031,1.907988 -15.29428,0 z m 19.834692,-41.2532253 0,15.0441353 -1.773091,1.910117 -3.811599,-4.224936 0,-10.414521 3.811611,-4.2814775 1.773067,1.9666943 z m -18.790462,12.7293163 -3.861635,4.224936 -1.723043,-1.910117 0,-15.0441353 1.722947,-1.9666943 3.861599,4.2814896 0,10.414521 z m 12.161446,-11.571871 -11.117144,0 -3.861647,-4.2815852 1.773091,-1.9101405 15.29428,0 1.723043,1.9101405 -3.811623,4.2815852 z"
     id="path8"
     inkscape:connector-curvature="0"
     style="fill:#000011" />
  <path
     d="m 5.8482935,44.598783 0,-15.044112 1.723043,-1.90794 3.8616475,4.222735 0,10.414522 -3.8616475,4.281452 -1.723043,-1.966694 z m 4.5404125,5.034244 -1.7730915,-1.910129 3.8616595,-4.281561 11.117228,0 3.809362,4.281561 -1.720854,1.910129 -15.29428,0 z M 30.22347,8.3776606 l 0,15.0440634 -1.775304,1.910176 -3.809458,-4.222783 0,-10.416637 3.809446,-4.2815739 1.775256,1.9667545 z m -5.58475,21.1770104 -13.205736,0 -2.8173454,-3.065385 2.8173454,-3.067562 13.205724,0 2.765156,3.06755 -2.765156,3.065301 z M 23.594502,9.535034 12.488144,9.5567993 8.6112735,5.2905097 10.377835,3.3738034 25.682998,3.3455205 27.40378,5.2556491 23.594502,9.535046 Z m 28.185597,22.334637 3.809411,-4.224948 1.77522,1.910141 0,15.044123 -1.77522,1.966694 -3.809411,-4.281585 0,-10.414425 z m -18.790438,12.729316 0,-15.044135 1.723019,-1.910141 3.861647,4.224948 0,10.414521 -3.861647,4.281633 -1.723019,-1.966694 z m 4.540436,5.034256 -1.775279,-1.910213 3.863811,-4.281477 11.117144,0 3.809435,4.281477 -1.720831,1.910213 -15.29428,0 z M 57.36473,8.3777808 l 0,15.0441592 -1.77522,1.910117 -3.809411,-4.224924 0,-10.414533 3.809411,-4.2814894 1.77522,1.9666943 z m -18.790403,12.7293402 -3.861647,4.224936 -1.723019,-1.910141 0,-15.0441352 1.723019,-1.9666702 3.861647,4.2814894 0,10.414521 z m 12.161434,-11.5718826 -11.117144,0 -3.863799,-4.2793969 1.775279,-1.9101165 15.29428,0 1.720831,1.9101165 -3.809447,4.2793969 z M 6.3406224,60.266572 l 0.8724162,-0.04786 0,0.139226 0.4285482,0 0.300229,-0.04569 0.8572046,-0.09352 0,-0.248004 0.1305317,-0.400314 -0.2436633,-0.25012 -0.3154407,-0.07612 0.058682,-0.06085 0,-0.141415 -0.1000483,-0.184945 0,-1.640467 -0.1305197,-0.804956 0.1718858,-0.463384 0.1283432,0 0.056566,-0.435126 0.2436633,-0.324231 0.3589833,-0.215345 0.084849,-0.06313 0.04341,0.06313 0.3567828,0.121814 0.3002651,0.09343 0.071789,0.184945 0.128307,0.139249 0.05652,-0.07624 0.04353,0.07612 0,0.108707 -0.3437953,0.417749 0.043531,0.04786 0,0.417629 0.1283067,0.18711 0.07179,0.05868 -0.07179,0.07828 -0.2284752,0.574316 0.2284752,0.463444 -0.1283067,0.27838 0.07167,0.0457 -0.1153206,0.13913 0.043531,0.200216 0.1283069,0.32636 -0.1283069,0.2785 -0.043531,0 0.043531,0.04786 -0.171958,0.137086 -0.184945,0.187109 -0.043651,-0.04786 -0.2000966,0.11087 -0.184945,0.07612 -0.043531,0.248076 0.1284273,0.27838 0.3001449,0.13913 0.043531,-0.13925 0.8571442,0.13925 0.11532,-0.13925 0.200217,0 0.400193,0.0457 0,0.09355 0.07179,-0.13925 1.044254,0.0457 0.828885,0 0.385042,0.09355 0.300145,-0.13925 0.171837,-0.387206 -0.07179,-0.32636 -0.300265,-0.13913 0,0.06301 -0.05664,0.07612 -0.343676,-0.07612 -0.130591,-0.387327 0,-1.516357 -0.184945,-0.541727 0.185065,-0.713686 0.04557,-0.385162 0.0849,-0.789804 -0.130591,-0.13925 -0.0849,-0.526456 -0.169673,-0.123978 0.06963,-0.06313 -0.297981,-0.137085 -0.502526,-0.184945 -0.300265,0.0457 -0.541848,0.200097 0,0.13925 -0.07179,0.04786 -0.228475,0.137086 -0.258899,-0.06097 -0.113156,0.139129 -0.11532,0 -0.60053,-0.743988 -0.2000965,0.09572 -0.1001686,-0.13925 -0.084777,0.04353 -0.2152481,0 -0.3133724,0.280664 -0.071789,-0.0784 -0.058682,0.215368 -0.36989,0.247956 -0.1000483,-0.137085 -0.087061,0.07612 -0.1131555,-0.187109 -0.4873746,-0.276336 -0.1715853,0 -0.1284273,-0.141414 -0.056518,0.09572 -0.1283071,-0.13925 -0.3024296,0.04353 -0.4699383,0.480881 0.043579,0.04774 0.069505,0.215368 0.1001685,0 0.086941,0.06313 0,0.0457 0.4286925,0.27838 0.2284275,-0.13925 0.2436272,0.2785 0.056518,0.248076 0.07191,0.07612 -0.1284274,0.326359 -0.1153201,0.463445 0.1717897,0.247956 0,0.463325 -0.056518,0.52862 -0.071789,0.324195 0,1.068184 -0.1000483,0.200097 0.056638,0.04581 -0.1284274,0.202261 -0.1842956,0 -0.2436874,-0.06085 -0.3154406,0.276215 -0.1131556,0.07832 -0.1305318,-0.137085 -0.2132038,0.400313 0.2002168,0.465538 z m 5.6346906,-5.077835 0.09797,0.108826 0.07179,0 0.05872,-0.06306 0.113156,0.326311 0.128343,0.200121 -0.128343,0.526504 -0.04139,0.07614 0.09796,0.141415 -0.228452,0.511304 0.130496,0.850627 0,0.202309 -0.258863,0.324195 0.05664,0.602575 0.07179,0.187157 0,0.0609 -0.256734,0.139226 -0.228476,0 -0.200096,0.124026 -0.04341,0 -0.128427,-0.263252 -0.300265,0.07615 -0.18711,0.06307 0,-0.06307 -0.04125,-0.07615 0,-0.202309 0.04125,-0.04575 -0.356782,-0.465525 0.184945,-0.38509 0,-0.215369 0.04353,-0.202309 0.08706,-0.372054 0,-0.09356 0.04137,-0.0457 -0.300266,-0.465537 0.171958,-0.387279 0,-0.276263 0.258899,-0.526504 0.05664,0 0.171838,-0.187085 -0.05652,-0.07615 0.128308,0 0.05664,-0.24804 0,-0.200097 0.171958,-0.07836 0.428573,0.202309 0.08706,0.215345 z m 4.331201,-1.533264 -0.615682,-0.121838 0,0.121838 -0.171886,0 -0.05657,0.480809 0.11532,0.187109 0.07177,0.04566 -0.07175,0.09139 0.241463,0.326312 0.300229,0 0.128343,-0.139226 0.358996,0 0.184824,0.202345 0.115321,0.184909 0.385041,-0.387326 0.171838,-0.0457 0.187109,0.184945 0,0.06313 -0.0588,0.261064 -0.06962,0.341511 -0.0588,0 0.05868,1.17701 0.06963,0.263228 -0.128307,0.98978 0.05868,0.06097 -0.18711,0.326239 -0.04353,-0.06313 -0.07179,0 -0.05664,0.108827 0.128307,0 0.100049,0.232684 0,0.432901 -0.657048,0 -0.857145,-0.06313 -0.187109,0.139129 -0.341511,0 -0.315417,0.202262 -0.07191,0.465609 0.128428,0.36989 0.171838,0.09356 0.315416,0.0457 0.07179,-0.0457 0.04137,0.0457 0,0.06085 1.044254,0.08045 0.05652,-0.08057 0.11532,0.141415 0.184825,0.123978 0.372055,-0.184945 0.52862,0 0.315537,-0.141415 0.128307,0.141415 0.07179,-0.08057 0.828885,0 0.258899,-0.06097 0.226311,0.141414 0,0.06097 0.60041,-0.06097 0.315417,-0.141414 0.11532,-0.263228 0.0849,-0.245792 -0.128427,-0.141414 0,-0.06313 0.04341,-0.213325 -0.171958,-0.326359 -0.358947,-0.06313 -0.857265,0 -0.356783,0.06313 -0.300265,0.07612 -0.128427,-0.139129 0,-0.04569 -0.130592,-0.41775 -0.04137,-0.324195 -0.07179,-0.992065 0.113156,-0.245792 0,-0.465609 -0.04137,-0.604739 0,-1.498319 -0.258899,-0.526577 -0.469818,-0.0784 -0.128428,0.13925 -0.0588,-0.06097 -0.128307,0 -0.557,-0.07828 -0.52874,-0.06313 0,-0.0457 -0.07179,0.04557 z m 2.216935,-2.149475 -0.487339,-0.278476 -0.300229,0.13925 -0.07184,0.0457 -0.05657,0 -0.07176,-0.0457 -0.171898,0.184897 -0.05657,0 -0.171838,0.324195 -0.08484,-0.0457 -0.01527,0.03042 0.04356,0.07834 0.05656,-0.06313 0,0.202261 0.0435,0.743989 0.428572,0.0457 0.528741,0 0.0849,-0.0457 0.04353,0.0457 0.08706,0 0.400314,-0.32636 -0.05868,-0.572151 -0.169553,-0.463445 z m 5.660135,2.149475 0,0.124014 0.256771,0.247956 0.23064,0 0.06974,0.09356 0.128307,0 0,0.187109 0.530906,0 0.385161,-0.326359 0.171958,0 0.05664,-0.06313 0.372055,-0.263228 0.187109,-0.06097 0.113156,0.108826 0.11532,0 0.07179,-0.04786 0,-0.06097 0.298101,0.108826 0.0588,-0.04786 0.113156,0 0.443844,0.371935 0.11532,0 0.48521,0.804956 -0.07191,0 0,0.402477 0.07191,0.387207 0.171838,0.387206 0,0.139249 -0.243627,0.324195 0.07191,2.81951 0.300265,0.213204 0.05664,-0.07612 0.372054,0.789684 -0.241463,0.139249 -0.05868,0.06301 -0.200217,-0.202382 -0.828885,0 -0.08706,0.06313 -0.785355,0.07612 -0.113156,-0.13925 -0.487254,0 -0.128307,-0.184945 0.07167,-0.528741 0.05664,0.06313 0.07179,-0.06313 0.228476,-0.07624 0.987736,-0.0457 0.09788,-0.13925 -0.04137,-0.06097 -0.05652,0 0.09788,-0.141415 -0.04137,-0.07612 -0.184945,-0.665706 0.05664,-0.372054 0.169673,-0.200097 -0.169673,-0.263228 0.07191,-0.202381 0,-0.13925 -0.128427,-0.04353 0.05664,-0.467774 0.07179,-0.526576 -0.200217,-0.324195 0,-0.324075 -0.52874,-0.465609 -0.18711,-0.06097 -0.200096,0 -0.171838,0.184945 -0.428572,0.247956 -0.228476,0 -0.128307,0.27838 0.05652,0.06313 -0.356903,0.602575 0,0.184945 -0.05652,-0.06085 -0.130472,0 -0.113155,0.200217 0.04341,0.18711 -0.04341,-0.04786 -0.358948,0.89851 0.04353,0.324195 0.05868,0.280665 0.06962,0.387206 -0.171958,0.137085 0,0.263228 0.171958,0.341511 0.915827,0.04557 0.128307,-0.137085 0.04353,0.09139 0.128307,0 -0.256735,0.121813 -0.1152,0.528621 -0.356782,0.387206 -0.300266,-0.13925 -0.186989,0.07612 -0.171958,0.06301 0,-0.06301 -1.113999,0 -0.05652,-0.07612 -0.11532,0 -0.128307,0.13925 -0.184945,-0.139226 -0.302429,0.07612 -0.04137,0.06301 0,0.07834 -0.187109,-0.141414 -0.200121,-0.184945 -0.0566,0.0457 -0.04355,0 0,-0.323546 0.04341,0 0.128307,-0.326359 0.184945,-0.184825 0.343676,0 0.387326,-0.200097 0.171838,0.06097 0.05652,-0.202321 0.128307,-0.263228 0,-0.200145 -0.05661,-0.04786 0.184861,-0.23052 -0.128332,-0.184945 0.07179,0.07612 0,-0.865802 -0.07179,-0.06313 -0.05664,-0.18266 0,-1.318196 -0.07179,-0.07605 0.128307,-0.126263 0,-0.215369 -0.356783,-0.0457 -0.171837,-0.06313 0,-0.215369 -0.615682,-0.432973 -0.07179,-0.278524 -0.05652,-0.280664 0.356783,-0.371982 0.559164,0.184884 0.05652,-0.06097 0,0.06085 0.300265,0.0784 0.300145,-0.263228 0.07179,0 0.05652,-0.200216 0.04353,0.200096 0.128031,0 z m 8.083312,0.326527 -0.08704,0.07836 0.258947,0.137037 0.128428,0.110919 -0.07167,0.07614 0.113156,0.248077 -0.169673,0.665706 0,2.430055 0.05664,1.068304 0.372054,0.245791 0.05664,-0.04569 0,0.04569 0.171958,0.09356 0.256735,0.04786 0.228475,-0.141415 0.07179,0.09356 0.171958,0 0.559043,-0.604739 0.313373,-0.385042 0.04353,-0.559043 0.256735,-0.106542 0,-0.263228 0.04353,0 0.184945,-0.387206 -0.0564,-0.41763 0.128307,-0.123978 0,-0.387326 0.05664,-0.463325 0.300265,-0.341631 -0.300265,-0.324075 -1.100771,-0.04786 -0.243628,-0.136965 0.07191,-0.46561 0.487375,-0.202261 0.728837,0.06313 0.228355,0.13925 0.171958,-0.06085 0.385042,0 0.171958,0.200096 0,1.96453 0.05664,0.711401 0.07179,0.931219 -0.07179,-0.04786 0,0.248077 0.130472,0.587543 0,0.06301 0.300265,0.13925 0.169673,0 0.130592,0.184945 0.128307,0.141414 0.300265,0 0.128307,0.137086 0.171465,0 0.05652,0.184825 0,0.52862 -0.05664,0.07828 0,0.106662 -0.04353,0 -0.07187,0.13925 -0.313253,0 -0.04353,-0.0457 -0.184945,0 -0.07179,0.0457 -0.23064,0.13925 -0.198052,0 0,-0.04569 -0.530785,-0.09356 -0.298101,-0.13925 -0.487326,0 0,-0.106542 -0.200157,-0.217653 -0.656928,0.07624 0,0.06313 -0.258899,0.13925 -0.04137,0 -0.05868,-0.06097 -0.256734,0.200097 -0.772368,0.184945 -0.08484,0.06313 -0.472007,-0.387086 -0.315717,0 0,-0.139249 -0.228355,-0.06313 -0.243627,0 0.04345,-0.07612 -0.100048,-0.108827 -0.07185,-0.928934 -0.128343,-0.526456 0.128379,-0.263228 0,-2.445543 -0.128307,-0.324075 -0.04137,-0.339418 -0.143459,-0.202382 -0.328524,-0.03259 -0.15873,0.108826 -0.215368,-0.09355 -0.198053,-0.387206 -0.01527,-0.291487 0.11532,-0.311207 0.213203,-0.108707 0.158851,0.03262 0.313373,-0.06308 0.02838,0.07828 0.171958,0.23064 0.04353,-0.0457 -0.04341,0.03042 -0.05652,-0.06313 0.05664,-0.06085 0.04353,0.09355 0.05664,-0.137086 0.500482,0.245912 0.315416,0 z m 8.416478,-2.740793 0.200169,0 0.100048,0.184908 0,0.250241 0.200181,0.13705 0.05664,0 -0.300145,0.650506 0.171837,0.526456 -0.171837,0.419914 0.171837,0.184897 1.15741,0 0.356903,-0.04786 0,-0.09134 0.128427,0.139202 0.30243,0 0.298101,0.278452 -0.04125,0.432961 -0.07179,0.07835 0,0.13913 -0.228355,0.106662 -0.200097,-0.04353 -0.615681,0 -0.04353,0.04353 -0.785355,-0.04353 -0.184945,0.182781 0,0.326239 -0.243627,0.13925 -0.128428,0.13913 0.171838,0.572151 0,0.602574 0.300265,0.324195 -0.171838,0.143579 -0.171837,0.200097 0,0.139249 0.243747,0.123979 0.228356,0 -0.04341,0.06085 0.04353,0.04557 -0.128307,0.341511 -0.100049,0.263228 0.100049,0.202261 0.128427,0.137085 0.256735,0 0.128307,-0.602694 0.04353,-0.200217 -0.128307,-0.141535 0.0849,-0.324074 0.102333,0 0,0.556879 0.126263,0.108827 0.128307,0 0.171838,-0.341632 0.130592,0 0.469938,-0.569986 0.487374,0.137085 0.07179,0 0.05664,0.32636 0,0.711401 -0.05652,0.06301 0,0.215368 -0.07179,0 -0.0588,0.108706 -0.241462,0.276336 0.07179,0.04786 -0.07179,0 -0.100049,0.41775 0,0.06313 -0.258899,0.121814 0,0.202261 -0.128307,0.13925 0.07179,0.0457 -0.500362,0.07828 -0.171838,0.141414 -0.126142,0.245792 -0.102213,0 -0.0849,0.09356 -0.171838,-0.232805 -0.728837,0.09356 -0.128307,0.13925 -0.23052,-0.2785 0.04353,-0.280664 -0.469939,-0.324075 -0.187109,-0.572271 -0.07179,0 -0.04137,-0.09355 0,-0.184825 0.169674,-0.187109 -0.128308,-0.711522 0.128428,-0.741824 0.07179,-1.131315 0.05868,-0.64839 0,-0.66787 -0.187109,-0.106662 -0.300145,0.06301 -0.300265,0.04353 -0.60053,0 -0.128331,0.13925 -0.258899,-0.18278 -0.05664,0.04353 -0.113156,-0.106662 -0.128307,0 0.06962,-0.07828 -0.06962,-0.06085 0,-0.604859 0.371934,-0.324075 0.126143,0.09127 0.187109,0 0.04341,-0.137085 0.613517,0.04569 0.300265,0.200096 0.300265,-0.200096 0,-1.965721 0.07179,-0.20018 0.315537,-0.184897 0.341631,0.06088 0.0588,0.07612 z m 7.234597,2.740793 -0.857192,-0.06306 -0.130532,0.202261 -0.128343,-0.139214 -0.169698,0.215369 -0.05875,-0.07624 -0.300229,0.18711 0,0.215368 -0.472103,0.247956 -0.385162,0.324075 0,0.13925 -0.228475,0.526456 -0.07179,0 0,0.526456 -0.128307,0.261063 -0.171958,0.06313 0,0.263107 0.241463,0.387206 0.05868,0.743989 0.07179,0.463325 0.171838,0.326359 0.313252,0.245792 0.04353,0.341511 0.08478,0.07612 0.171838,0.108707 0,0.13925 0.128428,0 0.04341,0.07828 0,0.108706 0.428572,0.324195 0.844158,0.09355 0.200096,0.139249 0.171838,0.0457 0.128307,-0.13925 0.300265,0 0.184825,-0.184945 0.731002,-0.13925 0.184945,-0.248077 0.343675,-0.280664 0.128307,-0.261064 0.256735,-0.339346 0.04353,-0.326359 -0.243627,-0.324195 -0.228355,0.07612 -0.387327,0.387206 -0.2981,0.18711 -0.171958,0.415585 -0.18711,0.13925 -0.469938,0 -0.315417,0.187109 -0.07191,-0.0784 0,-0.06313 -0.356783,0 -0.171838,-0.184945 -0.615802,-0.2785 0,-0.04569 -0.36989,-0.200097 -0.23064,-0.465609 0.04353,-0.07624 -0.171958,-0.248076 0.128307,-0.13925 -0.171838,-0.32636 0.171717,-0.184945 0.04365,0.0457 0.18699,0.07828 0.369769,-0.124098 0.78752,-0.09355 0.184945,0.13925 0,0.184945 0.128307,0 0.04353,-0.0457 0.128427,-0.184945 0.60041,-0.200096 0.428572,0.324074 0.356783,-0.263228 0.08706,-0.06085 0.171838,0 0.128427,0.06085 0,0.0457 0.471983,0 0.05652,-0.326359 -0.05652,-0.06097 0,-0.0457 0.05652,-0.280664 0.07179,0 0,-0.184825 0.05652,-0.07624 -0.128428,-0.202261 0.07191,-0.0457 -0.171958,-0.200097 -0.256735,-0.541703 0,-0.202382 -0.356782,-0.324195 -0.1152,-0.326239 -0.184945,0 -0.07179,-0.06097 0,-0.123978 -0.187109,0 -0.113156,-0.13925 -0.844037,-0.13925 z m -0.857192,2.769534 -0.300229,-0.05878 -0.18711,0 0,-0.08045 -0.113119,-0.06316 -0.130532,-0.324147 0.07185,-0.06093 0.171814,-0.123858 c 0,0 0.18711,-0.308923 0.18711,-0.341511 l 0.04134,-0.324074 0,-0.07612 0.128343,-0.108826 -0.04128,-0.2785 0.171814,-0.18711 0.256734,0 0,0.04786 0.0435,0.07828 0.128307,0 0,0.06097 0.05652,0.06097 0.128307,-0.121814 0.343676,-0.07828 0,0.07828 0.08706,0.06097 0.04137,0 0.07167,-0.13925 0.05652,0.200097 0.300265,0.465609 -0.04137,1.068184 -0.315416,0 -0.07179,-0.09356 -0.128427,0.200217 -0.100049,0 -0.128307,0.13925 -0.171958,-0.202382 -0.11532,-0.04353 -0.141414,0.07624 -0.300265,0.169793 z m 7.09869,-2.906811 0.128355,-0.134957 0.426432,0.135041 0.354618,0 0.29804,0.272006 0.426408,0.0457 0.128307,0.195768 0.128307,0 0.226312,-0.378428 0.07179,0 0.100048,-0.134801 0.25457,0.06097 0.04341,0.07395 0.08478,0 -0.05664,-0.05868 0.07167,-0.0457 0.02826,0.03054 -0.04353,0.07395 0,0.137086 0.04341,0.0457 0.169673,0.452502 -0.169673,0.513469 -0.04353,0.0588 0.11532,0.121814 -0.07191,0 0,0.195888 0.128427,0.317581 -0.128427,0.211159 -0.297981,0 0.06963,-0.07612 -0.426407,-0.452502 -0.126143,-0.376384 -0.783311,-0.635162 -0.36989,0.0457 0,-0.0457 -0.2981,-0.05868 -0.313252,-0.07612 -0.297981,0 -0.2981,0.07624 -0.611233,0.511305 -0.100168,0.121813 0.184945,0.241463 0,0.134801 -0.0849,0 -0.04137,-0.0457 -0.128428,0.182781 0.128308,0.134801 0,0.241582 0.29798,0.271887 0.724508,0 0.313373,0.0457 0.59608,0.07395 0,0.06085 0.297981,0.180616 0.228475,-0.119529 0.680978,0.07612 0.426408,0.376383 0.228355,0 0.128428,0.391536 0.354618,0.378548 0,0.513469 -0.05652,0.452502 0,0.180616 -0.171958,0.180616 -0.25457,0.272006 0,0.134921 -0.04353,-0.07395 -0.554715,0.587423 -0.611353,0.121813 -0.04125,0.06097 -0.441679,0.134921 -0.113156,0.134921 -0.05664,-0.08923 -0.169673,0.134921 -0.385042,-0.315537 -0.04137,0.07407 -0.185065,0 -0.128307,-0.13492 -0.07179,0.06085 -0.2981,-0.18266 -0.526456,0.04557 -0.680978,0.211039 -0.184825,0 -0.341631,-0.452502 0,-0.498197 0.04365,-0.64839 0.08478,-0.271886 0.04125,-0.0457 -0.04137,-0.07395 -0.08478,-0.241463 0,-0.226311 0.08478,-0.106662 0.09788,-0.211039 0.300265,-0.04569 0.297981,0.317701 0,0.134801 0.2981,0.241462 0.128307,0 -0.04353,0.07624 0.2981,0.134921 0.171838,0 0.05652,0.18266 -0.100049,0.195888 0.297981,0.180496 0.171837,-0.06089 0.184945,-0.119649 0.241487,0.256735 -0.07191,0.241462 0.07179,0.08923 0.113035,0 0.07186,-0.226191 0.426311,0 0.098,0.137085 0.07179,0 0.184945,-0.18266 -0.05658,-0.195827 0.05652,-0.07395 0.169637,0.211039 0.256734,-0.07624 0.04353,-0.18052 0.0849,-0.452502 0.226311,-0.137085 0.07179,-0.06085 0,-0.04353 -0.07179,-0.09139 -0.05652,-0.180495 -0.483045,-0.378548 -0.241463,-0.07395 -0.313252,-0.241463 -0.04137,0.0457 -0.200097,0 -0.09788,-0.121814 -0.08706,0.07624 -0.524291,0.104377 -0.241463,-0.104293 -0.611353,-0.07624 -0.554787,-0.452502 -0.100048,0 -0.06959,0.07612 -0.313312,-0.452502 -0.11532,-0.513349 -0.05652,-0.39382 0,-0.195767 0.48521,-0.828886 0.169553,-0.04557 0.981243,-0.406879 0.298101,0.0893 0.05652,0.0457 z"
     id="path10"
     inkscape:connector-curvature="0"
     style="fill:#ffffff" />
</svg>
