<?xml version="1.0" encoding="UTF-8" standalone="no"?>
<!-- Generator: Adobe Illustrator 18.0.0, SVG Export Plug-In . SVG Version: 6.00 Build 0)  -->

<svg
   xmlns:dc="http://purl.org/dc/elements/1.1/"
   xmlns:cc="http://creativecommons.org/ns#"
   xmlns:rdf="http://www.w3.org/1999/02/22-rdf-syntax-ns#"
   xmlns:svg="http://www.w3.org/2000/svg"
   xmlns="http://www.w3.org/2000/svg"
   xmlns:sodipodi="http://sodipodi.sourceforge.net/DTD/sodipodi-0.dtd"
   xmlns:inkscape="http://www.inkscape.org/namespaces/inkscape"
   version="1.1"
   id="Layer_1"
   x="0px"
   y="0px"
   viewBox="0 0 64 64"
   enable-background="new 0 0 64 64"
   xml:space="preserve"
   inkscape:version="0.91 r13725"
   sodipodi:docname="calendar3.svg"><metadata
     id="metadata127"><rdf:RDF><cc:Work
         rdf:about=""><dc:format>image/svg+xml</dc:format><dc:type
           rdf:resource="http://purl.org/dc/dcmitype/StillImage" /><dc:title></dc:title></cc:Work></rdf:RDF></metadata><defs
     id="defs125" /><sodipodi:namedview
     pagecolor="#ffffff"
     bordercolor="#666666"
     borderopacity="1"
     objecttolerance="10"
     gridtolerance="10"
     guidetolerance="10"
     inkscape:pageopacity="0"
     inkscape:pageshadow="2"
     inkscape:window-width="1238"
     inkscape:window-height="1008"
     id="namedview123"
     showgrid="true"
     inkscape:zoom="5.6568543"
     inkscape:cx="43.512032"
     inkscape:cy="11.637357"
     inkscape:window-x="-7"
     inkscape:window-y="0"
     inkscape:window-maximized="0"
     inkscape:current-layer="Layer_1"
     inkscape:snap-bbox="true"
     inkscape:bbox-paths="true"
     inkscape:bbox-nodes="true"
     inkscape:snap-bbox-edge-midpoints="true"
     inkscape:snap-bbox-midpoints="true"
     inkscape:object-paths="true"
     inkscape:snap-intersection-paths="true"
     inkscape:object-nodes="true"
     inkscape:snap-smooth-nodes="true"
     inkscape:snap-midpoints="true"><inkscape:grid
       type="xygrid"
       id="grid4167"
       spacingx="4"
       spacingy="4" /></sodipodi:namedview><g
     id="g33"
     transform="matrix(1.5238095,0,0,1.5238095,-16.761904,-14.224674)"><g
       id="g35"><path
         style="fill:#ffffff"
         inkscape:connector-curvature="0"
         id="path37"
         d="m 53,51.334943 -42,0 L 11,21.1 l 42,0 z"
         sodipodi:nodetypes="ccccc" /></g></g><g
     id="g41"
     transform="matrix(1.5238095,0,0,1.5238095,-16.761904,-16.914285)"><g
       id="g43"><path
         style="fill:#f44e57"
         inkscape:connector-curvature="0"
         id="path45"
         d="m 53,24.1 -42,0 0,-13 42,0 z"
         sodipodi:nodetypes="ccccc" /></g></g><g
     id="g57"
     transform="matrix(1.5238095,0,0,1.5238095,-16.761904,-16.914285)"><g
       id="g59" /></g><g
     id="g65"
     transform="matrix(1.5238095,0,0,1.5238095,-16.761904,-16.914285)"><g
       id="g67"><path
         style="fill:#e2e2e2"
         inkscape:connector-curvature="0"
         id="path69"
         d="m 20.4,16.6 0,0 C 19.1,16.6 18,15.5 18,14.2 L 18,9.4 C 18,8.1 19.1,7 20.4,7 l 0,0 c 1.3,0 2.4,1.1 2.4,2.4 l 0,4.7 c 0.1,1.4 -1,2.5 -2.4,2.5 z" /></g></g><g
     id="g73"
     transform="matrix(1.5238095,0,0,1.5238095,-16.761904,-16.914285)"><g
       id="g75"><path
         style="fill:#e2e2e2"
         inkscape:connector-curvature="0"
         id="path77"
         d="m 43.6,16.6 0,0 c -1.3,0 -2.4,-1.1 -2.4,-2.4 l 0,-4.8 C 41.2,8.1 42.3,7 43.6,7 l 0,0 C 44.9,7 46,8.1 46,9.4 l 0,4.7 c 0,1.4 -1.1,2.5 -2.4,2.5 z" /></g></g><g
     id="g81"
     transform="matrix(1.5238095,0,0,1.5238095,-16.761904,-16.914285)"><g
       id="g83"><g
         id="g85"><path
           d="m 26,45.5 c -1.3,0 -2.6,-0.3 -3.6,-1 -0.5,-0.3 -1,-0.7 -1.3,-1.1 -0.4,-0.4 -0.6,-0.8 -0.9,-1.3 l 2.6,-1.5 c 0.1,0.3 0.3,0.5 0.5,0.8 0.2,0.2 0.4,0.4 0.7,0.7 0.5,0.4 1.2,0.6 2,0.6 0.7,0 1.2,-0.2 1.7,-0.6 0.5,-0.4 0.7,-0.9 0.7,-1.6 0,-0.5 -0.1,-1 -0.4,-1.3 -0.3,-0.3 -0.6,-0.5 -1.1,-0.7 -0.4,-0.2 -0.9,-0.3 -1.4,-0.3 -0.5,0 -0.9,-0.1 -1.3,-0.1 l -0.5,0 0,-2.8 0.4,0 c 1.4,0 2.3,-0.2 2.9,-0.5 0.6,-0.3 0.8,-0.8 0.8,-1.4 0,-0.3 -0.1,-0.5 -0.2,-0.7 C 27.5,32.5 27.3,32.3 27.2,32.2 27.2,32.1 27,32 26.7,32 26.5,31.9 26.2,31.9 26,31.9 c -0.7,0 -1.2,0.2 -1.7,0.5 -0.5,0.3 -0.9,0.7 -1.3,1.2 l -2.2,-2 c 0.7,-0.7 1.4,-1.3 2.3,-1.8 0.8,-0.4 1.8,-0.7 2.8,-0.7 1.6,0 2.9,0.4 3.9,1.1 1,0.8 1.5,1.8 1.5,3.1 0,0.7 -0.2,1.4 -0.5,1.9 -0.3,0.6 -0.8,1 -1.5,1.4 0.8,0.4 1.5,0.9 1.9,1.6 0.4,0.7 0.6,1.5 0.6,2.4 0,1.5 -0.5,2.7 -1.6,3.5 -1.1,1 -2.5,1.4 -4.2,1.4 z"
           id="path87"
           inkscape:connector-curvature="0" /></g></g></g><g
     id="g89"
     transform="matrix(1.5238095,0,0,1.5238095,-16.761904,-16.914285)"><g
       id="g91"><g
         id="g93"><path
           d="m 33.9,42.6 2.4,0 0,-10.2 -2.8,0 0,-2.3 c 0.6,0 1.2,-0.1 1.9,-0.2 0.6,-0.1 1.2,-0.4 1.7,-0.9 l 2.5,0 0,13.6 2.4,0 0,2.7 -8.1,0 0,-2.7 z"
           id="path95"
           inkscape:connector-curvature="0" /></g></g></g><g
     id="g99"
     transform="matrix(1.5238095,0,0,1.5238095,-16.761904,-16.914285)"><g
       id="g101"><g
         id="g103"><path
           d="m 27.1,21.9 -1.9,0 0,-5.6 1.8,0 c 0.4,0 0.8,0.1 1.2,0.2 0.4,0.1 0.6,0.3 0.8,0.6 0.2,0.2 0.4,0.5 0.5,0.9 0.1,0.3 0.2,0.7 0.2,1.2 0,0.5 -0.1,0.8 -0.2,1.2 -0.1,0.3 -0.3,0.6 -0.5,0.9 -0.4,0.4 -1.1,0.6 -1.9,0.6 z m 0,-4.6 -0.6,0 0,3.6 0.6,0 c 0.3,0 0.5,0 0.7,-0.1 0.2,-0.1 0.3,-0.2 0.4,-0.4 0.1,-0.2 0.2,-0.4 0.2,-0.6 0,-0.2 0.1,-0.4 0.1,-0.7 0,-0.3 0,-0.6 -0.1,-0.8 -0.1,-0.2 -0.1,-0.4 -0.3,-0.6 -0.2,-0.2 -0.6,-0.4 -1,-0.4 z"
           id="path105"
           inkscape:connector-curvature="0"
           style="fill:#ffffff" /></g></g></g><g
     id="g107"
     transform="matrix(1.5238095,0,0,1.5238095,-16.761904,-16.914285)"><g
       id="g109"><g
         id="g111"><path
           d="m 30.3,16.3 3.8,0 0,1 -2.6,0 0,1.2 1.9,0 0,1 -1.9,0 0,1.4 2.7,0 0,1 -3.9,0 0,-5.6 z"
           id="path113"
           inkscape:connector-curvature="0"
           style="fill:#ffffff" /></g></g></g><g
     id="g115"
     transform="matrix(1.5238095,0,0,1.5238095,-16.761904,-16.914285)"><g
       id="g117"><g
         id="g119"><path
           d="M 36.8,22 C 36.4,22 36,21.9 35.7,21.8 35.4,21.6 35.2,21.4 35,21.2 34.8,20.9 34.7,20.6 34.6,20.3 34.5,20 34.5,19.6 34.5,19.2 c 0,-0.4 0,-0.7 0.1,-1.1 0.1,-0.3 0.2,-0.7 0.4,-0.9 0.2,-0.3 0.4,-0.5 0.7,-0.6 0.3,-0.2 0.7,-0.2 1.1,-0.2 0.5,0 0.9,0.1 1.2,0.3 0.2,0.1 0.3,0.3 0.5,0.5 0.1,0.2 0.2,0.5 0.3,0.8 l -1.1,0 c -0.1,-0.2 -0.2,-0.4 -0.3,-0.6 -0.1,-0.2 -0.3,-0.2 -0.6,-0.2 -0.2,0 -0.3,0 -0.4,0.1 -0.1,0.1 -0.2,0.1 -0.3,0.3 -0.1,0.1 -0.1,0.2 -0.2,0.4 0,0.1 -0.1,0.3 -0.1,0.4 0,0.1 0,0.3 0,0.4 0,0.1 0,0.3 0,0.4 0,0.6 0.1,1.1 0.3,1.4 0.2,0.3 0.4,0.5 0.8,0.5 0.1,0 0.3,0 0.4,-0.1 0.1,-0.1 0.2,-0.1 0.3,-0.2 0.1,-0.1 0.1,-0.2 0.2,-0.3 0.1,-0.1 0.1,-0.2 0.2,-0.3 l 1.1,0.3 c -0.1,0.3 -0.2,0.5 -0.4,0.7 -0.2,0.2 -0.3,0.3 -0.5,0.5 -0.4,0.2 -0.8,0.3 -1.4,0.3 z"
           id="path121"
           inkscape:connector-curvature="0"
           style="fill:#ffffff" /></g></g></g></svg>