<?xml version="1.0" encoding="UTF-8" standalone="no"?>
<!-- Generator: Adobe Illustrator 18.0.0, SVG Export Plug-In . SVG Version: 6.00 Build 0)  -->

<svg
   xmlns:dc="http://purl.org/dc/elements/1.1/"
   xmlns:cc="http://creativecommons.org/ns#"
   xmlns:rdf="http://www.w3.org/1999/02/22-rdf-syntax-ns#"
   xmlns:svg="http://www.w3.org/2000/svg"
   xmlns="http://www.w3.org/2000/svg"
   xmlns:sodipodi="http://sodipodi.sourceforge.net/DTD/sodipodi-0.dtd"
   xmlns:inkscape="http://www.inkscape.org/namespaces/inkscape"
   version="1.1"
   id="Layer_1"
   x="0px"
   y="0px"
   viewBox="0 0 64 64"
   enable-background="new 0 0 64 64"
   xml:space="preserve"
   inkscape:version="0.91 r13725"
   sodipodi:docname="mail-blue.svg"><metadata
     id="metadata51"><rdf:RDF><cc:Work
         rdf:about=""><dc:format>image/svg+xml</dc:format><dc:type
           rdf:resource="http://purl.org/dc/dcmitype/StillImage" /><dc:title></dc:title></cc:Work></rdf:RDF></metadata><defs
     id="defs49" /><sodipodi:namedview
     pagecolor="#ffffff"
     bordercolor="#666666"
     borderopacity="1"
     objecttolerance="10"
     gridtolerance="10"
     guidetolerance="10"
     inkscape:pageopacity="0"
     inkscape:pageshadow="2"
     inkscape:window-width="1920"
     inkscape:window-height="1017"
     id="namedview47"
     showgrid="true"
     inkscape:snap-bbox="true"
     inkscape:bbox-paths="true"
     inkscape:bbox-nodes="true"
     inkscape:snap-bbox-edge-midpoints="true"
     inkscape:snap-bbox-midpoints="true"
     inkscape:object-paths="true"
     inkscape:snap-intersection-paths="true"
     inkscape:object-nodes="true"
     inkscape:snap-smooth-nodes="true"
     inkscape:snap-midpoints="true"
     inkscape:zoom="10.429825"
     inkscape:cx="18.110656"
     inkscape:cy="28.177964"
     inkscape:window-x="-8"
     inkscape:window-y="-8"
     inkscape:window-maximized="1"
     inkscape:current-layer="Layer_1"><inkscape:grid
       type="xygrid"
       id="grid3420"
       spacingx="4"
       spacingy="4"
       empspacing="4" /></sodipodi:namedview><g
     id="g5"
     style="fill:#475f8e;fill-opacity:1"><g
       id="g7"
       style="fill:#475f8e;fill-opacity:1"><rect
         style="opacity:1;fill:#475f8e;fill-opacity:1;stroke:none;stroke-width:1.20500004;stroke-linecap:round;stroke-miterlimit:4;stroke-dasharray:none;stroke-opacity:1"
         id="rect3422"
         width="64"
         height="64"
         x="0"
         y="0" /></g></g><g
     id="g11"
     style="fill:#8c8c8c;fill-opacity:1"
     transform="matrix(1.0526316,0,0,1.0526316,-1.6842105,0.5)"><g
       id="g13"
       style="fill:#8c8c8c;fill-opacity:1"><polygon
         style="fill:#8c8c8c;fill-opacity:1"
         id="polygon15"
         points="32,9 13,22 13,35 32,35 51,35 51,22 " /></g></g><g
     id="g17"
     transform="matrix(1.0526316,0,0,1.0526316,-1.6842105,0.5)"><g
       id="g19"><path
         style="fill:#ffffff"
         inkscape:connector-curvature="0"
         id="path21"
         d="m 45,13 0,30 c 0,0.5 -0.5,1 -1,1 l -24,0 c -0.5,0 -1,-0.5 -1,-1 l 0,-30 c 0,-0.6 0.5,-1 1,-1 l 24,0 c 0.5,0 1,0.4 1,1 z" /></g></g><g
     id="g23"
     transform="matrix(1.0526316,0,0,1.0526316,-1.6842105,0.5)"><g
       id="g25"><path
         style="fill:#d3d5dd"
         inkscape:connector-curvature="0"
         id="path27"
         d="m 40.1,18 c 0.5,0 0.9,0.5 0.9,1 0,0.5 -0.4,1 -0.9,1 L 23.9,20 C 23.4,20 23,19.5 23,19 c 0,-0.5 0.4,-1 0.9,-1 l 16.2,0 z" /></g></g><g
     id="g29"
     transform="matrix(1.0526316,0,0,1.0526316,-1.6842105,0.5)"><g
       id="g31"><path
         style="fill:#d3d5dd"
         inkscape:connector-curvature="0"
         id="path33"
         d="m 40.1,23 c 0.5,0 0.9,0.5 0.9,1 0,0.5 -0.4,1 -0.9,1 L 23.9,25 C 23.4,25 23,24.5 23,24 c 0,-0.5 0.4,-1 0.9,-1 l 16.2,0 z" /></g></g><g
     id="g35"
     transform="matrix(1.0526316,0,0,1.0526316,-1.6842105,0.5)"><g
       id="g37"><polygon
         style="fill:#d1d5db"
         id="polygon39"
         points="13,22 13,48 51,48 51,22 32,35 " /></g></g><g
     id="g41"
     transform="matrix(1.0526316,0,0,1.0526316,-1.6842105,0.5)"><g
       id="g43"><path
         style="fill:#e1e5ea"
         inkscape:connector-curvature="0"
         id="path45"
         d="M 51,48 35.2,32.2 28.8,32.2 13,48 51,48 Z" /></g></g></svg>