<?xml version="1.0" encoding="UTF-8" standalone="no"?>
<!-- Created with Inkscape (http://www.inkscape.org/) -->

<svg
   xmlns:dc="http://purl.org/dc/elements/1.1/"
   xmlns:cc="http://creativecommons.org/ns#"
   xmlns:rdf="http://www.w3.org/1999/02/22-rdf-syntax-ns#"
   xmlns:svg="http://www.w3.org/2000/svg"
   xmlns="http://www.w3.org/2000/svg"
   xmlns:sodipodi="http://sodipodi.sourceforge.net/DTD/sodipodi-0.dtd"
   xmlns:inkscape="http://www.inkscape.org/namespaces/inkscape"
   width="64"
   height="64"
   viewBox="0 0 64.000001 64.000001"
   id="svg4139"
   version="1.1"
   inkscape:version="0.91 r13725"
   sodipodi:docname="instapaper.svg">
  <defs
     id="defs4141" />
  <sodipodi:namedview
     id="base"
     pagecolor="#ffffff"
     bordercolor="#666666"
     borderopacity="1.0"
     inkscape:pageopacity="0.0"
     inkscape:pageshadow="2"
     inkscape:zoom="3.959798"
     inkscape:cx="30.88638"
     inkscape:cy="46.167014"
     inkscape:document-units="px"
     inkscape:current-layer="layer1"
     showgrid="false"
     units="px"
     inkscape:window-width="1920"
     inkscape:window-height="1017"
     inkscape:window-x="-8"
     inkscape:window-y="-8"
     inkscape:window-maximized="1" />
  <metadata
     id="metadata4144">
    <rdf:RDF>
      <cc:Work
         rdf:about="">
        <dc:format>image/svg+xml</dc:format>
        <dc:type
           rdf:resource="http://purl.org/dc/dcmitype/StillImage" />
        <dc:title></dc:title>
      </cc:Work>
    </rdf:RDF>
  </metadata>
  <g
     inkscape:label="Calque 1"
     inkscape:groupmode="layer"
     id="layer1"
     transform="translate(0,-988.36216)">
    <rect
       style="opacity:1;fill:#ffffff;fill-opacity:1;stroke:none;stroke-width:7.08661413;stroke-linecap:round;stroke-miterlimit:4;stroke-dasharray:none;stroke-opacity:0.46961329"
       id="rect4700"
       width="64"
       height="64"
       x="0"
       y="988.36212" />
    <path
       style="fill:#000000"
       d="m 23.393103,1038.9201 c 0,-0.8916 0.277345,-1.1355 1.566485,-1.3773 2.940734,-0.5517 2.847309,-0.01 2.847309,-16.5186 0,-16.5417 0.0897,-16.0257 -2.883155,-16.5835 -1.239271,-0.2324 -1.530639,-0.4878 -1.530639,-1.3414 l 0,-1.0544 8.827587,0 8.827586,0 0,1.0544 c 0,0.8536 -0.291368,1.109 -1.530639,1.3414 -2.972858,0.5578 -2.883154,0.042 -2.883154,16.5835 0,16.5089 -0.09343,15.9669 2.847308,16.5186 1.28914,0.2418 1.566485,0.4857 1.566485,1.3773 l 0,1.0835 -8.827586,0 -8.827587,0 0,-1.0835 z"
       id="path4698"
       inkscape:connector-curvature="0" />
  </g>
</svg>
