<?xml version="1.0" encoding="UTF-8" standalone="no"?>
<!-- Generator: Adobe Illustrator 16.0.4, SVG Export Plug-In . SVG Version: 6.00 Build 0)  -->

<svg
   xmlns:dc="http://purl.org/dc/elements/1.1/"
   xmlns:cc="http://creativecommons.org/ns#"
   xmlns:rdf="http://www.w3.org/1999/02/22-rdf-syntax-ns#"
   xmlns:svg="http://www.w3.org/2000/svg"
   xmlns="http://www.w3.org/2000/svg"
   xmlns:sodipodi="http://sodipodi.sourceforge.net/DTD/sodipodi-0.dtd"
   xmlns:inkscape="http://www.inkscape.org/namespaces/inkscape"
   version="1.1"
   id="Layer_1"
   x="0px"
   y="0px"
   width="64"
   height="64"
   viewBox="0 0 64 64"
   enable-background="new 0 0 388 86"
   xml:space="preserve"
   inkscape:version="0.91 r13725"
   sodipodi:docname="kindle.svg"><metadata
     id="metadata35"><rdf:RDF><cc:Work
         rdf:about=""><dc:format>image/svg+xml</dc:format><dc:type
           rdf:resource="http://purl.org/dc/dcmitype/StillImage" /><dc:title></dc:title></cc:Work></rdf:RDF></metadata><defs
     id="defs33" /><sodipodi:namedview
     pagecolor="#ffffff"
     bordercolor="#666666"
     borderopacity="1"
     objecttolerance="10"
     gridtolerance="10"
     guidetolerance="10"
     inkscape:pageopacity="0"
     inkscape:pageshadow="2"
     inkscape:window-width="1920"
     inkscape:window-height="1017"
     id="namedview31"
     showgrid="false"
     inkscape:zoom="3.6701031"
     inkscape:cx="49.628616"
     inkscape:cy="24.067664"
     inkscape:window-x="-8"
     inkscape:window-y="-8"
     inkscape:window-maximized="1"
     inkscape:current-layer="Layer_1" /><rect
     style="opacity:1;fill:#ffffff;fill-opacity:1;stroke:none;stroke-width:7.08661413;stroke-linecap:round;stroke-miterlimit:4;stroke-dasharray:none;stroke-opacity:0.46961329"
     id="rect4208"
     width="64"
     height="64"
     x="0"
     y="0" /><g
     id="g4189"
     transform="translate(0.10926693,-4.7168891)"><g
       transform="matrix(0.27486292,0,0,0.27486292,1.9809747,17.09341)"
       id="g4171"><path
         d="m 134.49,47.526 c -12.391,9.145 -30.354,14.007 -45.822,14.007 -21.679,0 -41.201,-8.014 -55.973,-21.353 -1.16,-1.048 -0.125,-2.479 1.269,-1.667 15.938,9.274 35.649,14.86 56.006,14.86 13.732,0 28.828,-2.851 42.719,-8.742 2.094,-0.887 3.851,1.382 1.801,2.895 z"
         id="path3"
         inkscape:connector-curvature="0"
         style="clip-rule:evenodd;fill:#ff9900;fill-rule:evenodd" /><path
         d="m 139.646,41.641 c -1.585,-2.029 -10.475,-0.962 -14.47,-0.483 -1.21,0.146 -1.398,-0.912 -0.308,-1.678 7.093,-4.981 18.714,-3.543 20.065,-1.875 1.361,1.683 -0.357,13.334 -7.004,18.894 -1.022,0.855 -1.995,0.399 -1.542,-0.73 1.497,-3.736 4.845,-12.098 3.259,-14.128 z"
         id="path5"
         inkscape:connector-curvature="0"
         style="clip-rule:evenodd;fill:#ff9900;fill-rule:evenodd" /><path
         d="m 125.458,4.289 0,-4.841 c 0.004,-0.737 0.558,-1.228 1.228,-1.226 l 21.695,-0.002 c 0.693,0 1.25,0.504 1.25,1.221 l 0,4.152 c -0.006,0.697 -0.593,1.605 -1.633,3.047 L 136.76,22.685 c 4.171,-0.098 8.585,0.527 12.375,2.658 0.854,0.479 1.083,1.19 1.151,1.888 l 0,5.166 c 0,0.711 -0.78,1.535 -1.599,1.105 -6.676,-3.497 -15.538,-3.879 -22.922,0.044 -0.754,0.401 -1.543,-0.41 -1.543,-1.123 l 0,-4.909 c 0,-0.786 0.015,-2.13 0.808,-3.327 L 138.05,5.508 126.714,5.507 c -0.696,0.001 -1.252,-0.493 -1.256,-1.218 z"
         id="path7"
         inkscape:connector-curvature="0"
         style="clip-rule:evenodd;fill-rule:evenodd" /><path
         d="m 46.321,34.521 -6.601,0 c -0.628,-0.042 -1.129,-0.513 -1.181,-1.116 l 0.005,-33.874 c 0,-0.678 0.569,-1.219 1.273,-1.219 l 6.147,-0.002 c 0.643,0.033 1.159,0.519 1.199,1.138 l 0,4.422 0.124,0 c 1.602,-4.277 4.621,-6.273 8.686,-6.273 4.128,0 6.716,1.997 8.564,6.273 1.603,-4.277 5.237,-6.273 9.119,-6.273 2.772,0 5.792,1.141 7.64,3.707 2.094,2.852 1.665,6.985 1.665,10.621 l -0.006,21.378 c 0,0.676 -0.569,1.219 -1.273,1.219 l -6.592,0 C 74.427,34.479 73.906,33.955 73.906,33.305 L 73.904,15.347 c 0,-1.424 0.123,-4.989 -0.186,-6.343 -0.493,-2.282 -1.971,-2.924 -3.88,-2.924 -1.603,0 -3.267,1.069 -3.945,2.78 -0.677,1.711 -0.616,4.562 -0.616,6.487 l 0,17.957 c 0,0.676 -0.569,1.219 -1.272,1.219 l -6.593,0 C 56.749,34.48 56.227,33.956 56.227,33.306 L 56.221,15.348 c 0,-3.778 0.616,-9.337 -4.065,-9.337 -4.745,0 -4.56,5.417 -4.56,9.337 l -0.002,17.957 c 10e-4,0.674 -0.57,1.216 -1.273,1.216 z"
         id="path9"
         inkscape:connector-curvature="0"
         style="clip-rule:evenodd;fill-rule:evenodd" /><path
         d="m 168.307,-2.403 c 9.796,0 15.093,8.413 15.093,19.104 0,10.335 -5.852,18.534 -15.093,18.534 -9.611,0 -14.849,-8.413 -14.849,-18.891 0,-10.55 5.299,-18.747 14.849,-18.747 z m 0.06,6.915 c -4.867,0 -5.174,6.628 -5.174,10.763 0,4.134 -0.061,12.973 5.114,12.973 5.115,0 5.36,-7.128 5.36,-11.475 0,-2.851 -0.123,-6.273 -0.987,-8.983 -0.739,-2.352 -2.219,-3.278 -4.313,-3.278 z"
         id="path11"
         inkscape:connector-curvature="0"
         style="clip-rule:evenodd;fill-rule:evenodd" /><path
         d="m 196.105,34.521 -6.576,0 c -0.661,-0.043 -1.185,-0.567 -1.185,-1.217 l -0.011,-33.887 c 0.056,-0.62 0.603,-1.105 1.268,-1.105 l 6.122,-0.002 c 0.577,0.03 1.052,0.423 1.173,0.948 l 0,5.182 0.125,0 c 1.849,-4.635 4.435,-6.844 8.994,-6.844 2.957,0 5.854,1.069 7.701,3.993 1.725,2.708 1.725,7.27 1.725,10.549 l 0,21.316 c -0.072,0.6 -0.612,1.066 -1.265,1.066 l -6.615,0 c -0.611,-0.039 -1.104,-0.488 -1.175,-1.066 l 0,-18.392 c 0,-3.707 0.432,-9.125 -4.128,-9.125 -1.603,0 -3.081,1.069 -3.82,2.708 -0.925,2.068 -1.049,4.134 -1.049,6.417 l 0,18.24 c -0.01,0.677 -0.58,1.219 -1.284,1.219 z"
         id="path13"
         inkscape:connector-curvature="0"
         style="clip-rule:evenodd;fill-rule:evenodd" /><path
         d="m 108.164,18.344 c 0,2.573 0.061,4.715 -1.236,7.002 -1.049,1.856 -2.717,3 -4.568,3 -2.531,0 -4.013,-1.93 -4.013,-4.787 0,-5.621 5.042,-6.643 9.818,-6.643 l 0,1.428 z m 6.653,16.093 c -0.436,0.393 -1.066,0.418 -1.559,0.153 -2.191,-1.821 -2.584,-2.663 -3.783,-4.397 -3.623,3.69 -6.188,4.798 -10.882,4.798 -5.556,0 -9.879,-3.43 -9.879,-10.288 0,-5.357 2.902,-9 7.039,-10.787 3.58,-1.572 8.582,-1.857 12.411,-2.287 l 0,-0.857 c 0,-1.572 0.123,-3.428 -0.804,-4.786 -0.803,-1.215 -2.346,-1.715 -3.705,-1.715 -2.517,0 -4.754,1.29 -5.305,3.963 -0.114,0.595 -0.548,1.184 -1.146,1.214 L 90.807,8.755 C 90.266,8.633 89.666,8.2 89.821,7.375 c 1.472,-7.76 8.48,-10.104 14.76,-10.104 3.212,0 7.409,0.855 9.941,3.286 3.212,3 2.902,7.002 2.902,11.36 l 0,10.281 c 0,3.094 1.285,4.45 2.491,6.116 0.422,0.602 0.516,1.314 -0.022,1.754 -1.348,1.131 -3.743,3.211 -5.061,4.384 l -0.015,-0.015 z"
         id="path15"
         inkscape:connector-curvature="0"
         style="clip-rule:evenodd;fill-rule:evenodd" /><path
         d="m 21.64,18.344 c 0,2.573 0.062,4.715 -1.234,7.002 -1.048,1.856 -2.717,3 -4.569,3 -2.531,0 -4.013,-1.93 -4.013,-4.787 0,-5.621 5.043,-6.643 9.816,-6.643 l 0,1.428 z m 6.655,16.093 c -0.436,0.393 -1.067,0.418 -1.559,0.153 -2.193,-1.821 -2.586,-2.663 -3.783,-4.397 -3.624,3.69 -6.189,4.798 -10.881,4.798 -5.557,0 -9.879,-3.43 -9.879,-10.288 0,-5.357 2.901,-9 7.039,-10.787 3.581,-1.572 8.583,-1.857 12.409,-2.287 l 0,-0.857 C 21.641,9.2 21.766,7.344 20.84,5.986 20.036,4.771 18.493,4.271 17.135,4.271 c -2.518,0 -4.757,1.29 -5.305,3.963 -0.115,0.595 -0.548,1.184 -1.147,1.214 L 4.287,8.755 C 3.745,8.632 3.144,8.2 3.3,7.374 4.77,-0.386 11.778,-2.73 18.06,-2.73 c 3.211,0 7.41,0.855 9.941,3.286 3.21,3 2.902,7.002 2.902,11.36 l 0,10.281 c 0,3.094 1.284,4.45 2.49,6.116 0.421,0.602 0.517,1.314 -0.021,1.754 -1.349,1.131 -3.745,3.211 -5.062,4.384 l -0.015,-0.014 z"
         id="path17"
         inkscape:connector-curvature="0"
         style="clip-rule:evenodd;fill-rule:evenodd" /></g><g
       transform="matrix(0.359726,0,0,0.359726,-77.978757,66.742407)"
       id="g4163"><g
         transform="translate(0,-62.123596)"
         id="g4181"><path
           style="fill:#ff9900"
           inkscape:connector-curvature="0"
           id="path19"
           d="m 246.028,34.535 -15.378,-18.644 -0.075,0 0,18.644 -5.53,0 0,-53.658 5.53,0 0,30.467 0.075,0 13.182,-12.657 7.196,0 -15.757,14.627 17.803,21.221 -7.046,0 z" /><path
           style="fill:#ff9900"
           inkscape:connector-curvature="0"
           id="path21"
           d="m 259.511,-8.816 c -2.121,0 -3.863,-1.743 -3.863,-3.865 0,-2.123 1.742,-3.865 3.863,-3.865 2.121,0 3.863,1.742 3.863,3.865 0,2.122 -1.742,3.865 -3.863,3.865 z m -2.727,43.351 0,-35.848 5.529,0 0,35.848 -5.529,0 z" /><path
           style="fill:#ff9900"
           inkscape:connector-curvature="0"
           id="path23"
           d="m 293.392,34.535 0,-22.054 c 0,-4.472 -0.757,-9.474 -6.212,-9.474 -4.394,0 -8.408,3.107 -11.135,5.458 l 0,26.071 -5.53,0 0,-35.849 4.545,0 0.758,4.32 c 3.938,-3.031 7.803,-5.229 12.803,-5.229 5.15,0 10.302,3.713 10.302,12.657 l 0,24.101 -5.531,0 z" /><path
           style="fill:#ff9900"
           inkscape:connector-curvature="0"
           id="path25"
           d="m 323.313,35.293 c -9.999,0 -18.408,-5.835 -18.408,-18.189 0,-11.14 8.029,-19.326 18.483,-19.326 2.575,0 4.395,0.227 5.833,0.606 l 0,-17.507 5.53,0 0,51.839 c -2.196,1.289 -6.362,2.577 -11.438,2.577 z m 5.909,-31.755 c -1.438,-0.531 -2.727,-0.909 -5.529,-0.909 -7.046,0 -13.182,5.533 -13.182,14.097 0,8.109 4.47,13.869 13.787,13.869 1.817,0 3.788,-0.379 4.924,-0.909 l 0,-26.148 z" /><path
           style="fill:#ff9900"
           inkscape:connector-curvature="0"
           id="path27"
           d="m 349.144,35.293 c -4.394,0 -6.287,-2.804 -6.287,-6.594 l 0,-47.822 5.53,0 0,45.321 c 0,3.41 0.833,4.093 2.954,4.093 0.379,0 0.985,0 1.894,-0.227 l 0.683,4.017 c -1.668,0.833 -2.956,1.212 -4.774,1.212 z" /><path
           style="fill:#ff9900"
           inkscape:connector-curvature="0"
           id="path29"
           d="m 362.854,17.559 c 0,6.821 3.939,12.958 11.666,12.958 3.258,0 6.591,-1.287 8.712,-2.651 l 1.742,3.94 c -2.651,1.819 -7.196,3.486 -11.136,3.486 -11.438,0 -16.894,-9.17 -16.894,-19.402 0,-10.383 5.909,-18.113 14.545,-18.113 9.242,0 14.317,7.352 14.317,18.493 0,0.379 0,0.833 0,1.289 l -22.952,0 z m 8.711,-15.082 c -5.302,0 -8.636,4.699 -8.636,10.383 l 16.894,0 c 0,-5.002 -2.802,-10.383 -8.258,-10.383 z" /></g></g></g></svg>