<?xml version="1.0" encoding="UTF-8" standalone="no"?>
<svg
   xmlns:dc="http://purl.org/dc/elements/1.1/"
   xmlns:cc="http://creativecommons.org/ns#"
   xmlns:rdf="http://www.w3.org/1999/02/22-rdf-syntax-ns#"
   xmlns:svg="http://www.w3.org/2000/svg"
   xmlns="http://www.w3.org/2000/svg"
   xmlns:sodipodi="http://sodipodi.sourceforge.net/DTD/sodipodi-0.dtd"
   xmlns:inkscape="http://www.inkscape.org/namespaces/inkscape"
   height="512"
   version="1.1"
   width="512"
   id="svg2"
   inkscape:version="0.91 r13725"
   sodipodi:docname="1471715373_map.svg">
  <metadata
     id="metadata46">
    <rdf:RDF>
      <cc:Work
         rdf:about="">
        <dc:format>image/svg+xml</dc:format>
        <dc:type
           rdf:resource="http://purl.org/dc/dcmitype/StillImage" />
        <dc:title></dc:title>
      </cc:Work>
    </rdf:RDF>
  </metadata>
  <defs
     id="defs44" />
  <sodipodi:namedview
     pagecolor="#ffffff"
     bordercolor="#666666"
     borderopacity="1"
     objecttolerance="10"
     gridtolerance="10"
     guidetolerance="10"
     inkscape:pageopacity="0"
     inkscape:pageshadow="2"
     inkscape:window-width="1920"
     inkscape:window-height="1017"
     id="namedview42"
     showgrid="false"
     inkscape:zoom="1.7383042"
     inkscape:cx="313.70757"
     inkscape:cy="368.85634"
     inkscape:window-x="-8"
     inkscape:window-y="-8"
     inkscape:window-maximized="1"
     inkscape:current-layer="g4217"
     showguides="true"
     inkscape:guide-bbox="true"
     inkscape:snap-bbox="true"
     inkscape:bbox-paths="true"
     inkscape:snap-bbox-edge-midpoints="true"
     inkscape:bbox-nodes="true"
     inkscape:snap-bbox-midpoints="true"
     inkscape:object-paths="true"
     inkscape:snap-intersection-paths="true"
     inkscape:object-nodes="true"
     inkscape:snap-smooth-nodes="true"
     inkscape:snap-midpoints="true">
    <sodipodi:guide
       position="27.613119,0"
       orientation="0,1"
       id="guide4209"
       inkscape:label=""
       inkscape:color="rgb(0,0,255)" />
    <sodipodi:guide
       position="512,512"
       orientation="0,1"
       id="guide4211"
       inkscape:label=""
       inkscape:color="rgb(0,0,255)" />
    <sodipodi:guide
       position="0,0"
       orientation="1,0"
       id="guide4213"
       inkscape:label=""
       inkscape:color="rgb(0,0,255)" />
    <sodipodi:guide
       position="512,512"
       orientation="1,0"
       id="guide4215"
       inkscape:label=""
       inkscape:color="rgb(0,0,255)" />
  </sodipodi:namedview>
  <g
     id="g4217"
     transform="translate(-24.61875,-0.6365)">
    <g
       transform="matrix(28.061875,0,0,28.061875,-56.12375,-28995.062)"
       id="g8">
      <path
         style="fill:#27ae60"
         inkscape:connector-curvature="0"
         id="path10"
         d="m 12,1032.4 -5,0.8 0,11.5 5,-0.8 z" />
      <path
         style="fill:#3498db"
         inkscape:connector-curvature="0"
         id="path12"
         d="m 7,1046.7 -5,1.3 0,3.5 5,0.9 z" />
      <path
         style="fill:#2ecc71"
         inkscape:connector-curvature="0"
         id="path14"
         d="m 2,1032.4 0,13 5,-1.3 0,-10.9 z" />
      <path
         style="fill:#2980b9"
         inkscape:connector-curvature="0"
         id="path16"
         d="m 12,1044.9 -5,2.6 0,4.9 5,-0.9 z" />
      <path
         style="fill:#f39c12"
         inkscape:connector-curvature="0"
         id="path18"
         d="m 12,1041.8 -5,2.3 0,3.4 5.023,-2 z" />
      <path
         style="fill:#f39c12"
         inkscape:connector-curvature="0"
         id="path20"
         d="m 8.9499,1032.9 2.5031,9.2 0.547,-0.2 0,-9.5 z" />
      <path
         style="fill:#2ecc71"
         inkscape:connector-curvature="0"
         id="path22"
         d="m 12.078,1032.4 2.422,10.8 2.5,0 0,-10 z" />
      <path
         style="fill:#f1c40f"
         inkscape:connector-curvature="0"
         id="path24"
         d="m 12,1032.4 0,10.3 2.5,-0.3 -2.422,-10 z" />
      <path
         style="fill:#f1c40f"
         inkscape:connector-curvature="0"
         id="path26"
         d="M 17.026,1041.3 12,1042 l 0,4.2 5,-0.5 z" />
      <path
         style="fill:#27ae60"
         inkscape:connector-curvature="0"
         id="path28"
         d="m 17,1033.2 0,8.2 5,-1.4 0,-7.6 z" />
      <path
         style="fill:#2980b9"
         inkscape:connector-curvature="0"
         id="path30"
         d="m 22,1042.4 -5,2.4 0,7.6 5,-0.9 z" />
      <path
         style="fill:#3498db"
         inkscape:connector-curvature="0"
         id="path32"
         d="m 17,1044.8 -4.997,0.7 -0.003,6 5,0.9 z" />
      <path
         style="fill:#f1c40f"
         inkscape:connector-curvature="0"
         id="path34"
         d="m 7,1044.1 -5,0.8 0,3.3 5,-0.7 z" />
      <path
         style="fill:#f39c12"
         inkscape:connector-curvature="0"
         id="path36"
         d="m 22,1039.4059 -5,1.8977 0,3.4964 5,-1.6 z"
         sodipodi:nodetypes="ccccc" />
    </g>
    <g
       transform="matrix(19.468569,0,0,19.468569,58.624952,-19965.394)"
       style="fill:#c0392b"
       id="g38">
      <path
         style="fill:#c0392b"
         inkscape:connector-curvature="0"
         id="path40"
         d="m 8.4023,1035.8 c 0.3907,-0.4 0.586,-0.9 0.586,-1.4 0,-0.6 -0.1953,-1.1 -0.586,-1.5 -0.3906,-0.3 -0.8619,-0.5 -1.414,-0.5 -0.5521,0 -1.0235,0.2 -1.4141,0.5 -0.3906,0.4 -0.5859,0.9 -0.5859,1.5 0,0.5 0.1953,1 0.5859,1.4 0.3906,0.4 0.862,0.6 1.4141,0.6 0.5521,0 1.0234,-0.2 1.414,-0.6 m 2.5857,-1.4 c 0,0.5 -0.086,1 -0.258,1.4 l -2.8433,6 c -0.0833,0.2 -0.2083,0.3 -0.375,0.4 -0.1614,0.1 -0.3359,0.2 -0.5234,0.2 -0.1875,0 -0.3646,-0.1 -0.5313,-0.2 -0.1614,-0.1 -0.2812,-0.2 -0.3593,-0.4 l -2.8516,-6 c -0.1719,-0.4 -0.2578,-0.9 -0.2578,-1.4 0,-1.1 0.3906,-2.1 1.1719,-2.9 0.7812,-0.7 1.7239,-1.1 2.8281,-1.1 1.1041,0 2.0469,0.4 2.8281,1.1 0.7816,0.8 1.1716,1.8 1.1716,2.9" />
    </g>
  </g>
</svg>
