<?xml version="1.0" encoding="UTF-8" standalone="no"?>
<!-- Created with Inkscape (http://www.inkscape.org/) -->

<svg
   xmlns:dc="http://purl.org/dc/elements/1.1/"
   xmlns:cc="http://creativecommons.org/ns#"
   xmlns:rdf="http://www.w3.org/1999/02/22-rdf-syntax-ns#"
   xmlns:svg="http://www.w3.org/2000/svg"
   xmlns="http://www.w3.org/2000/svg"
   xmlns:xlink="http://www.w3.org/1999/xlink"
   xmlns:sodipodi="http://sodipodi.sourceforge.net/DTD/sodipodi-0.dtd"
   xmlns:inkscape="http://www.inkscape.org/namespaces/inkscape"
   width="64"
   height="64"
   viewBox="0 0 64.000001 64.000001"
   id="svg2"
   version="1.1"
   inkscape:version="0.91 r13725"
   sodipodi:docname="spotify.svg">
  <defs
     id="defs4" />
  <sodipodi:namedview
     id="base"
     pagecolor="#ffffff"
     bordercolor="#666666"
     borderopacity="1.0"
     inkscape:pageopacity="0.0"
     inkscape:pageshadow="2"
     inkscape:zoom="7.9195959"
     inkscape:cx="37.464893"
     inkscape:cy="48.379272"
     inkscape:document-units="px"
     inkscape:current-layer="layer1"
     showgrid="false"
     units="px"
     inkscape:window-width="1920"
     inkscape:window-height="1017"
     inkscape:window-x="-8"
     inkscape:window-y="-8"
     inkscape:window-maximized="1" />
  <metadata
     id="metadata7">
    <rdf:RDF>
      <cc:Work
         rdf:about="">
        <dc:format>image/svg+xml</dc:format>
        <dc:type
           rdf:resource="http://purl.org/dc/dcmitype/StillImage" />
        <dc:title />
      </cc:Work>
    </rdf:RDF>
  </metadata>
  <g
     inkscape:label="Calque 1"
     inkscape:groupmode="layer"
     id="layer1"
     transform="translate(0,-988.36215)">
    <rect
       style="opacity:1;fill:#ffffff;fill-opacity:1;stroke:none;stroke-width:7.08661413;stroke-linecap:round;stroke-miterlimit:4;stroke-dasharray:none;stroke-opacity:0.46961329"
       id="rect4135"
       width="64"
       height="64"
       x="0"
       y="988.36212" />
    <path
       sodipodi:type="inkscape:offset"
       inkscape:radius="0"
       inkscape:original="M 0 988.36133 L 0 1020.3613 L 0 1052.3613 L 32 1052.3613 L 64 1052.3613 L 64 1020.3613 L 64 988.36133 L 32 988.36133 L 0 988.36133 z M 30.085938 995.16602 C 36.684984 994.65589 43.201976 996.74983 48.542969 1001.2402 C 53.955206 1005.7905 57.25 1013.0715 57.25 1020.4863 C 57.25 1033.4048 47.655706 1044.0354 34.6875 1045.4844 C 32.008804 1045.7838 28.517169 1045.5553 25.880859 1044.9082 C 21.492012 1043.831 17.822186 1041.7701 14.457031 1038.4922 C 5.616241 1029.8809 4.2213301 1016.4509 11.095703 1006.1191 C 13.917761 1001.8776 18.630079 998.24393 23.5 996.55273 C 25.677093 995.79668 27.886255 995.33606 30.085938 995.16602 z M 26.267578 1008.8477 C 23.169399 1008.9751 20.196625 1009.3812 17.658203 1010.0508 C 15.576433 1010.6 15.0005 1011.0857 15 1012.2988 C 14.999662 1013.0744 15.305467 1013.7067 15.861328 1014.0781 C 16.433314 1014.4605 17.387771 1014.4528 18.894531 1014.0527 C 25.474385 1012.3055 35.356974 1012.7811 42.242188 1015.1777 C 42.953002 1015.4251 44.272602 1015.9974 45.173828 1016.4492 C 46.075055 1016.9011 47.009375 1017.3446 47.25 1017.4336 L 47.25 1017.4316 C 47.889461 1017.6679 48.255997 1017.6453 48.873047 1017.3301 C 50.249587 1016.6267 50.467429 1015.0611 49.341797 1013.9688 C 47.75637 1012.4302 40.765681 1010.056 35.625 1009.3105 C 32.589128 1008.8702 29.365757 1008.7202 26.267578 1008.8477 z M 26.4375 1017.4219 C 22.52997 1017.6326 18.465732 1018.4066 17.363281 1019.1484 C 16.557269 1019.6908 16.458516 1021.0775 17.181641 1021.7012 C 17.735913 1022.1791 18.262905 1022.1877 20.183594 1021.7559 C 22.884082 1021.1488 24.229851 1020.9783 26.875 1020.9043 C 30.581325 1020.8004 34.252304 1021.2633 37.615234 1022.2598 C 39.42404 1022.7958 40.652589 1023.2999 42.6875 1024.3418 C 44.303233 1025.1688 44.486964 1025.2363 45.09375 1025.1973 C 45.870116 1025.1474 46.312234 1024.8073 46.498047 1024.1172 C 46.806477 1022.9718 45.975381 1022.0503 43.5625 1020.8652 C 39.005853 1018.6272 31.623069 1017.1423 26.4375 1017.4219 z M 26.414062 1025.6172 C 24.411013 1025.7305 23.421756 1025.8429 20.972656 1026.2383 C 19.032911 1026.5514 18.584436 1026.6828 18.130859 1027.0645 C 17.810745 1027.3339 17.75 1027.4736 17.75 1027.9453 C 17.75 1028.3987 17.819938 1028.5758 18.115234 1028.8711 C 18.571152 1029.3274 18.777907 1029.3318 21.275391 1028.9297 C 25.654311 1028.2247 28.272942 1028.0753 31.142578 1028.3691 C 34.34314 1028.6969 36.63515 1029.3609 39.75 1030.8633 C 42.077359 1031.9859 42.555995 1032.0835 43.060547 1031.5391 C 43.49008 1031.0756 43.565281 1030.5789 43.291016 1030.0176 C 43.087897 1029.6019 42.864995 1029.4506 41.304688 1028.6738 C 36.473906 1026.2688 31.809539 1025.3118 26.414062 1025.6172 z "
       xlink:href="#path4149"
       style="fill:#7fb718"
       id="path4175"
       inkscape:href="#path4149"
       d="m 0,988.36133 0,31.99997 0,32 32,0 32,0 0,-32 0,-31.99997 -32,0 -32,0 z m 30.085938,6.80469 c 6.599046,-0.51013 13.116038,1.58381 18.457031,6.07418 5.412237,4.5503 8.707031,11.8313 8.707031,19.2461 0,12.9185 -9.594294,23.5491 -22.5625,24.9981 -2.678696,0.2994 -6.170331,0.071 -8.806641,-0.5762 -4.388847,-1.0772 -8.058673,-3.1381 -11.423828,-6.416 -8.84079,-8.6113 -10.2357009,-22.0413 -3.361328,-32.3731 2.822058,-4.2415 7.534376,-7.87517 12.404297,-9.56637 2.177093,-0.75605 4.386255,-1.21667 6.585938,-1.38671 z m -3.81836,13.68168 c -3.098179,0.1274 -6.070953,0.5335 -8.609375,1.2031 -2.08177,0.5492 -2.657703,1.0349 -2.658203,2.248 -3.38e-4,0.7756 0.305467,1.4079 0.861328,1.7793 0.571986,0.3824 1.526443,0.3747 3.033203,-0.025 6.579854,-1.7472 16.462443,-1.2716 23.347657,1.125 0.710814,0.2474 2.030414,0.8197 2.93164,1.2715 0.901227,0.4519 1.835547,0.8954 2.076172,0.9844 l 0,-0 c 0.639461,0.2363 1.005997,0.2137 1.623047,-0.1015 1.37654,-0.7034 1.594382,-2.269 0.46875,-3.3613 -1.585427,-1.5386 -8.576116,-3.9128 -13.716797,-4.6583 -3.035872,-0.4403 -6.259243,-0.5903 -9.357422,-0.4628 z m 0.169922,8.5742 c -3.90753,0.2107 -7.971768,0.9847 -9.074219,1.7265 -0.806012,0.5424 -0.904765,1.9291 -0.18164,2.5528 0.554272,0.4779 1.081264,0.4865 3.001953,0.055 2.700488,-0.6071 4.046257,-0.7776 6.691406,-0.8516 3.706325,-0.1039 7.377304,0.359 10.740234,1.3555 1.808806,0.536 3.037355,1.0401 5.072266,2.082 1.615733,0.827 1.799464,0.8945 2.40625,0.8555 0.776366,-0.05 1.218484,-0.39 1.404297,-1.0801 0.30843,-1.1454 -0.522666,-2.0669 -2.935547,-3.252 -4.556647,-2.238 -11.939431,-3.7229 -17.125,-3.4433 z m -0.02344,8.1953 c -2.003049,0.1133 -2.992306,0.2257 -5.441406,0.6211 -1.939745,0.3131 -2.38822,0.4445 -2.841797,0.8262 -0.320114,0.2694 -0.380859,0.4091 -0.380859,0.8808 0,0.4534 0.06994,0.6305 0.365234,0.9258 0.455918,0.4563 0.662673,0.4607 3.160157,0.059 4.37892,-0.705 6.997551,-0.8544 9.867187,-0.5606 3.200562,0.3278 5.492572,0.9918 8.607422,2.4942 2.327359,1.1226 2.805995,1.2202 3.310547,0.6758 0.429533,-0.4635 0.504734,-0.9602 0.230469,-1.5215 -0.203119,-0.4157 -0.426021,-0.567 -1.986328,-1.3438 -4.830782,-2.405 -9.495149,-3.362 -14.890626,-3.0566 z" />
    <path
       sodipodi:type="inkscape:offset"
       inkscape:radius="0.44194424"
       inkscape:original="M 0.17773438 988.53906 L 0.17773438 1020.3613 L 0.17773438 1052.1836 L 32 1052.1836 L 63.822266 1052.1836 L 63.822266 1020.3613 L 63.822266 988.53906 L 32 988.53906 L 0.17773438 988.53906 z M 32.558594 994.91797 C 38.340695 995.03955 43.955227 997.14957 48.658203 1001.1035 C 54.114936 1005.6912 57.427734 1013.0186 57.427734 1020.4863 C 57.427734 1033.4932 47.761368 1044.2035 34.707031 1045.6621 C 32.001343 1045.9645 28.500199 1045.7355 25.837891 1045.082 C 21.420217 1043.9978 17.716871 1041.9182 14.332031 1038.6211 C 5.4314896 1029.9516 4.0271867 1016.42 10.947266 1006.0195 C 13.794053 1001.7409 18.530328 998.09026 23.441406 996.38477 C 25.632631 995.62381 27.857035 995.15952 30.072266 994.98828 C 30.902952 994.92407 31.732579 994.9006 32.558594 994.91797 z M 28.609375 1008.9824 C 27.826723 1008.9794 27.047227 1008.9936 26.275391 1009.0254 C 23.188091 1009.1523 20.225518 1009.5573 17.703125 1010.2227 C 16.670867 1010.495 16.028598 1010.7544 15.664062 1011.0625 C 15.299529 1011.3706 15.177973 1011.7205 15.177734 1012.2988 C 15.177417 1013.0274 15.457766 1013.5935 15.960938 1013.9297 C 16.455698 1014.2605 17.360379 1014.2763 18.849609 1013.8809 C 25.480099 1012.1202 35.372392 1012.5981 42.300781 1015.0098 C 43.027539 1015.2627 44.344259 1015.833 45.253906 1016.2891 C 45.703341 1016.5144 46.162244 1016.7382 46.537109 1016.916 C 46.905421 1017.0907 47.193412 1017.22 47.298828 1017.2598 A 0.17859117 0.17859117 0 0 1 47.3125 1017.2637 C 47.927678 1017.491 48.196398 1017.4756 48.791016 1017.1719 C 49.434881 1016.8429 49.79168 1016.3273 49.869141 1015.7715 C 49.946601 1015.2156 49.744881 1014.6101 49.216797 1014.0977 C 48.851035 1013.7427 48.125983 1013.304 47.175781 1012.8574 C 46.225579 1012.4108 45.049101 1011.9496 43.759766 1011.5117 C 41.181094 1010.636 38.154682 1009.8569 35.599609 1009.4863 C 33.331756 1009.1574 30.95733 1008.9915 28.609375 1008.9824 z M 28.470703 1017.5762 C 27.767986 1017.5578 27.090082 1017.5649 26.447266 1017.5996 C 24.501916 1017.7045 22.515972 1017.9509 20.882812 1018.2617 C 19.249654 1018.5725 17.953658 1018.9667 17.462891 1019.2969 C 17.115562 1019.5306 16.908726 1019.9598 16.876953 1020.4062 C 16.84518 1020.8528 16.989875 1021.2999 17.298828 1021.5664 C 17.555168 1021.7874 17.76421 1021.8833 18.173828 1021.8906 C 18.583446 1021.898 19.187844 1021.7971 20.144531 1021.582 C 22.850425 1020.9737 24.218019 1020.8007 26.869141 1020.7266 C 30.593618 1020.6222 34.283588 1021.0856 37.666016 1022.0879 C 39.482946 1022.6263 40.729466 1023.1391 42.769531 1024.1836 C 43.576708 1024.5967 44.023834 1024.8173 44.328125 1024.9258 C 44.632416 1025.0342 44.78637 1025.0385 45.082031 1025.0195 C 45.446465 1024.9961 45.712543 1024.9064 45.908203 1024.7559 C 46.103863 1024.6054 46.240595 1024.3881 46.326172 1024.0703 C 46.46679 1023.5481 46.360514 1023.1153 45.917969 1022.625 C 45.475423 1022.1347 44.681659 1021.6134 43.484375 1021.0254 C 39.532705 1019.0845 33.389724 1017.7049 28.470703 1017.5762 z M 28.404297 1025.7402 C 27.754629 1025.7387 27.094911 1025.7569 26.423828 1025.7949 C 24.424118 1025.908 23.44884 1026.019 21.001953 1026.4141 C 20.033823 1026.5703 19.440156 1026.6818 19.044922 1026.7969 C 18.649688 1026.9119 18.458421 1027.0225 18.246094 1027.2012 C 18.093414 1027.3297 18.023668 1027.4092 17.984375 1027.5 C 17.945082 1027.5908 17.927734 1027.7171 17.927734 1027.9453 C 17.927734 1028.3803 17.962165 1028.4641 18.242188 1028.7441 C 18.460809 1028.9629 18.544416 1029.0357 18.933594 1029.043 C 19.322772 1029.0503 19.998216 1028.9548 21.246094 1028.7539 C 25.632135 1028.0478 28.273469 1027.8959 31.160156 1028.1914 C 34.376437 1028.5208 36.700945 1029.1948 39.828125 1030.7031 C 40.989314 1031.2632 41.689621 1031.5615 42.125 1031.6504 C 42.34269 1031.6948 42.486413 1031.6881 42.601562 1031.6504 C 42.716713 1031.6127 42.814926 1031.5418 42.929688 1031.418 C 43.323051 1030.9935 43.381229 1030.6081 43.130859 1030.0957 C 43.03686 1029.9033 42.966124 1029.8042 42.707031 1029.6289 C 42.447938 1029.4536 42.003659 1029.2218 41.224609 1028.834 C 37.018793 1026.7401 32.951975 1025.751 28.404297 1025.7402 z "
       style="fill:#7fb718"
       id="path4179"
       d="m 0.17773438,988.09766 a 0.44198844,0.44198844 0 0 0 -0.44140626,0.4414 l 0,31.82224 0,31.8223 a 0.44198844,0.44198844 0 0 0 0.44140626,0.4414 l 31.82226562,0 31.822266,0 a 0.44198844,0.44198844 0 0 0 0.441406,-0.4414 l 0,-31.8223 0,-31.82224 a 0.44198844,0.44198844 0 0 0 -0.441406,-0.4414 l -31.822266,0 -31.82226562,0 z m 32.37109362,7.26172 c 5.680667,0.11944 11.194577,2.18975 15.824219,6.08202 5.346752,4.4952 8.613281,11.7079 8.613281,19.0449 0,12.788 -9.48713,23.3016 -22.328125,24.7364 -2.639388,0.2949 -6.116439,0.067 -8.714844,-0.5704 -4.346153,-1.0666 -7.966774,-3.0981 -11.302734,-6.3476 -8.7525316,-8.5253 -10.1330457,-21.8107 -3.326172,-32.041 2.785781,-4.1869 7.46185,-7.7907 12.271485,-9.46097 2.156292,-0.74882 4.342836,-1.20478 6.519531,-1.37304 0.816393,-0.0631 1.631929,-0.0874 2.443359,-0.0703 z m -3.9375,13.18162 c -0.789122,-0 -1.574858,0.011 -2.353516,0.043 -3.11426,0.128 -6.105817,0.535 -8.667968,1.2109 -1.055474,0.2784 -1.744344,0.5354 -2.210938,0.9297 -0.453529,0.3833 -0.642313,0.9341 -0.642578,1.5742 -3.66e-4,0.8421 0.347847,1.5767 0.978516,1.9981 0.696287,0.4655 1.713089,0.4192 3.248047,0.012 6.505932,-1.7276 16.371198,-1.2556 23.193359,1.1191 0.688472,0.2396 2.011546,0.8102 2.900391,1.2559 0.45236,0.2268 0.912591,0.4514 1.291015,0.6309 0.37262,0.1767 0.642434,0.3018 0.794922,0.3593 l 0,-0 a 0.44198844,0.44198844 0 0 0 0.01758,0.01 c 0.330257,0.1221 0.618128,0.1986 0.925782,0.1797 0.307653,-0.019 0.587619,-0.1283 0.90625,-0.291 0.751554,-0.384 1.216539,-1.0318 1.314453,-1.7344 0.09799,-0.7032 -0.168655,-1.4563 -0.78125,-2.0508 -0.444644,-0.4315 -1.189401,-0.867 -2.16211,-1.3242 -0.97129,-0.4565 -2.159646,-0.9213 -3.460937,-1.3632 -2.602792,-0.8839 -5.647146,-1.6689 -8.240235,-2.045 -2.290324,-0.3321 -4.683163,-0.4986 -7.050781,-0.5078 z m 18.791016,8.2891 c 0.06439,0.016 -0.01877,-0 0.0059,0 a 0.44198844,0.44198844 0 0 0 -0.0059,0 l 0,-0 z m -18.919922,0.3047 c -0.713125,-0.019 -1.402318,-0.012 -2.058594,0.023 -1.966357,0.106 -3.96739,0.3548 -5.623047,0.6699 -0.829198,0.1578 -1.574081,0.3368 -2.183593,0.5215 -0.609513,0.1848 -1.073098,0.3599 -1.400391,0.5801 -0.487838,0.3282 -0.741258,0.8834 -0.78125,1.4453 -0.04,0.5622 0.131826,1.1438 0.574219,1.5254 0.298447,0.2573 0.680364,0.4232 1.15625,0.4316 0.490007,0.01 1.109477,-0.101 2.076172,-0.3183 2.692298,-0.6053 4.00251,-0.772 6.638671,-0.8457 3.67969,-0.1032 7.326099,0.3558 10.660157,1.3437 1.79643,0.5323 3.000052,1.0265 5.027343,2.0645 0.809297,0.4142 1.257543,0.6394 1.611329,0.7656 0.3452,0.123 0.621922,0.139 0.93164,0.1191 0.421886,-0.027 0.784999,-0.139 1.066406,-0.3554 0.279744,-0.2152 0.471062,-0.5369 0.574219,-0.92 0.171097,-0.6353 -2.2e-4,-1.2972 -0.505859,-1.8574 -0.514264,-0.5697 -1.345726,-1.0997 -2.566406,-1.6992 -4.039962,-1.9843 -10.205314,-3.3635 -15.197266,-3.4941 z m -0.07617,8.164 c -0.658613,-0 -1.328359,0.016 -2.007812,0.055 -2.007898,0.1136 -3.014526,0.229 -5.466797,0.625 -0.972733,0.157 -1.57403,0.2677 -2.009766,0.3945 -0.431494,0.1256 -0.717304,0.2852 -0.960937,0.4903 -0.170656,0.1436 -0.305158,0.2815 -0.382813,0.4609 -0.07979,0.1844 -0.0918,0.3705 -0.0918,0.6211 0,0.2292 0.0022,0.4172 0.08203,0.6192 0.07983,0.2019 0.212133,0.343 0.361329,0.4921 0.111898,0.112 0.223731,0.2288 0.402343,0.3145 0.178612,0.086 0.372212,0.1091 0.59375,0.1133 0.471026,0.01 1.139738,-0.094 2.390625,-0.2949 4.368372,-0.7033 6.954573,-0.8498 9.798828,-0.5586 3.176968,0.3253 5.425089,0.9772 8.521485,2.4707 1.168511,0.5636 1.86616,0.8733 2.40039,0.9824 0.263542,0.054 0.497393,0.053 0.701172,-0.014 0.200245,-0.066 0.372592,-0.1973 0.515625,-0.3515 0.23462,-0.2532 0.406022,-0.5403 0.455078,-0.8633 0.04906,-0.323 -0.03134,-0.6456 -0.18164,-0.9532 -0.106112,-0.2171 -0.280067,-0.4409 -0.572266,-0.6386 -0.30354,-0.2054 -0.751265,-0.437 -1.533203,-0.8262 -4.25786,-2.1198 -8.404493,-3.1277 -13.015625,-3.1387 z" />
  </g>
</svg>
