<?xml version="1.0" encoding="UTF-8" standalone="no"?>
<!-- Generator: Adobe Illustrator 18.1.1, SVG Export Plug-In . SVG Version: 6.00 Build 0)  -->

<svg
   xmlns:dc="http://purl.org/dc/elements/1.1/"
   xmlns:cc="http://creativecommons.org/ns#"
   xmlns:rdf="http://www.w3.org/1999/02/22-rdf-syntax-ns#"
   xmlns:svg="http://www.w3.org/2000/svg"
   xmlns="http://www.w3.org/2000/svg"
   xmlns:sodipodi="http://sodipodi.sourceforge.net/DTD/sodipodi-0.dtd"
   xmlns:inkscape="http://www.inkscape.org/namespaces/inkscape"
   version="1.1"
   id="Capa_1"
   x="0px"
   y="0px"
   viewBox="0 0 15.304 15.304"
   style="enable-background:new 0 0 15.304 15.304;"
   xml:space="preserve"
   width="512px"
   height="512px"
   inkscape:version="0.91 r13725"
   sodipodi:docname="icon.svg"><metadata
     id="metadata51"><rdf:RDF><cc:Work
         rdf:about=""><dc:format>image/svg+xml</dc:format><dc:type
           rdf:resource="http://purl.org/dc/dcmitype/StillImage" /><dc:title></dc:title></cc:Work></rdf:RDF></metadata><defs
     id="defs49" /><sodipodi:namedview
     pagecolor="#ffffff"
     bordercolor="#666666"
     borderopacity="1"
     objecttolerance="10"
     gridtolerance="10"
     guidetolerance="10"
     inkscape:pageopacity="0"
     inkscape:pageshadow="2"
     inkscape:window-width="1920"
     inkscape:window-height="1017"
     id="namedview47"
     showgrid="false"
     inkscape:zoom="0.4609375"
     inkscape:cx="256"
     inkscape:cy="256"
     inkscape:window-x="-8"
     inkscape:window-y="-8"
     inkscape:window-maximized="1"
     inkscape:current-layer="Capa_1" /><rect
     style="opacity:1;fill:#4687f4;fill-opacity:1;stroke:none;stroke-width:1.20500004;stroke-linecap:round;stroke-miterlimit:4;stroke-dasharray:none;stroke-opacity:1"
     id="rect4179"
     width="15.304"
     height="15.304"
     x="0"
     y="-2.5056858e-008" /><g
     id="g3"
     transform="matrix(0.77118645,0,0,0.77118645,1.7508813,1.7508813)"><g
       id="g5"><g
         id="g7"><path
           d="m 5.734,8.248 0,-0.631 C 5.382,7.377 5.049,7.092 4.742,6.754 3.853,7.613 3.002,8.157 2.906,8.218 L 2.825,8.268 2.335,7.485 2.415,7.434 C 2.425,7.427 3.291,6.878 4.166,6.021 3.363,4.85 3.054,3.67 3.042,3.619 L 3.019,3.529 3.914,3.299 3.936,3.39 C 3.938,3.4 4.193,4.344 4.813,5.316 5.426,4.571 5.783,3.853 5.874,3.176 l -3.759,0 0,-1.005 2.072,0 0,-0.559 0.966,0 0,0.558 2.072,0 0,1.006 -0.417,0 C 6.711,4.117 6.233,5.092 5.384,6.077 5.498,6.205 5.615,6.322 5.734,6.434 l 0,-0.065 0,-0.408 c 0,-0.336 0.272,-0.608 0.608,-0.608 l 2.705,0 0,-4.784 C 9.047,0.485 8.98,0.417 8.895,0.417 l -8.743,0 C 0.068,0.417 0,0.485 0,0.569 l 0,8.742 c 0,0.085 0.068,0.152 0.152,0.152 l 5.582,0 0,-1.215 0,0 z"
           id="path9"
           inkscape:connector-curvature="0"
           style="fill:#ffffff" /><path
           d="m 10.728,8.515 -0.017,0 C 10.627,8.848 10.545,9.27 10.453,9.593 l -0.332,1.187 1.236,0 L 11.01,9.593 C 10.91,9.261 10.81,8.847 10.728,8.515 Z"
           id="path11"
           inkscape:connector-curvature="0"
           style="fill:#ffffff" /><path
           d="m 15.152,5.841 -8.742,0 c -0.084,0 -0.152,0.068 -0.152,0.152 l 0,8.743 c 0,0.084 0.068,0.151 0.152,0.151 l 8.742,0 c 0.085,0 0.152,-0.067 0.152,-0.151 l 0,-8.743 c 0,-0.083 -0.067,-0.152 -0.152,-0.152 z m -3.18,7.319 -0.431,-1.436 -1.601,0 -0.399,1.436 -1.31,0 1.709,-5.59 1.658,0 1.733,5.59 -1.359,0 z"
           id="path13"
           inkscape:connector-curvature="0"
           style="fill:#ffffff" /><polygon
           points="2.72,9.846 2.72,11.866 3.726,12.862 5.986,12.862 5.986,11.647 3.935,11.647 3.935,9.846 "
           id="polygon15"
           style="fill:#ffffff" /></g></g></g><g
     id="g17" /><g
     id="g19" /><g
     id="g21" /><g
     id="g23" /><g
     id="g25" /><g
     id="g27" /><g
     id="g29" /><g
     id="g31" /><g
     id="g33" /><g
     id="g35" /><g
     id="g37" /><g
     id="g39" /><g
     id="g41" /><g
     id="g43" /><g
     id="g45" /></svg>