<?xml version="1.0" encoding="UTF-8" standalone="no"?>
<svg
   xmlns:dc="http://purl.org/dc/elements/1.1/"
   xmlns:cc="http://creativecommons.org/ns#"
   xmlns:rdf="http://www.w3.org/1999/02/22-rdf-syntax-ns#"
   xmlns:svg="http://www.w3.org/2000/svg"
   xmlns="http://www.w3.org/2000/svg"
   xmlns:sodipodi="http://sodipodi.sourceforge.net/DTD/sodipodi-0.dtd"
   xmlns:inkscape="http://www.inkscape.org/namespaces/inkscape"
   viewBox="0 0 64 64"
   height="64"
   width="64"
   xml:space="preserve"
   id="svg2"
   version="1.1"
   inkscape:version="0.91 r13725"
   sodipodi:docname="twitter.svg"><sodipodi:namedview
     pagecolor="#ffffff"
     bordercolor="#666666"
     borderopacity="1"
     objecttolerance="10"
     gridtolerance="10"
     guidetolerance="10"
     inkscape:pageopacity="0"
     inkscape:pageshadow="2"
     inkscape:window-width="1920"
     inkscape:window-height="1017"
     id="namedview13"
     showgrid="false"
     inkscape:zoom="10.012632"
     inkscape:cx="50.920279"
     inkscape:cy="36.482464"
     inkscape:window-x="-8"
     inkscape:window-y="-8"
     inkscape:window-maximized="1"
     inkscape:current-layer="svg2" /><metadata
     id="metadata8"><rdf:RDF><cc:Work
         rdf:about=""><dc:format>image/svg+xml</dc:format><dc:type
           rdf:resource="http://purl.org/dc/dcmitype/StillImage" /><dc:title></dc:title></cc:Work></rdf:RDF></metadata><defs
     id="defs6"><clipPath
       id="clipPath20"
       clipPathUnits="userSpaceOnUse"><path
         id="path18"
         d="M 0,400 400,400 400,0 0,0 Z"
         inkscape:connector-curvature="0" /></clipPath></defs><g
     transform="matrix(0.16,0,0,-0.16,0,64)"
     id="g10"><path
       id="path12"
       style="fill:#1da1f2;fill-opacity:1;fill-rule:nonzero;stroke:none"
       d="m 0,0 400,0 0,400 -400,0 z"
       inkscape:connector-curvature="0" /><g
       id="g14"><g
         clip-path="url(#clipPath20)"
         id="g16"><g
           transform="translate(153.6233,98.4113)"
           id="g22"><path
             id="path24"
             style="fill:#ffffff;fill-opacity:1;fill-rule:nonzero;stroke:none"
             d="m 0,0 c 94.343,0 145.936,78.161 145.936,145.936 0,2.221 -0.045,4.431 -0.147,6.631 10.014,7.239 18.72,16.272 25.588,26.557 -9.191,-4.083 -19.081,-6.834 -29.456,-8.075 10.589,6.349 18.72,16.397 22.554,28.373 -9.912,-5.875 -20.885,-10.149 -32.568,-12.45 -9.36,9.97 -22.689,16.205 -37.44,16.205 -28.327,0 -51.299,-22.971 -51.299,-51.287 0,-4.026 0.451,-7.94 1.331,-11.695 -42.627,2.143 -80.428,22.554 -105.722,53.589 -4.409,-7.578 -6.947,-16.386 -6.947,-25.78 0,-17.795 9.056,-33.504 22.825,-42.694 -8.413,0.259 -16.318,2.571 -23.231,6.416 -0.011,-0.214 -0.011,-0.428 -0.011,-0.653 0,-24.844 17.683,-45.582 41.15,-50.285 -4.308,-1.172 -8.841,-1.804 -13.521,-1.804 -3.304,0 -6.518,0.327 -9.642,0.925 6.529,-20.378 25.464,-35.207 47.916,-35.625 -17.558,-13.757 -39.672,-21.956 -63.704,-21.956 -4.138,0 -8.221,0.237 -12.235,0.711 C -55.923,8.491 -28.971,0 0,0"
             inkscape:connector-curvature="0" /></g></g></g></g></svg>